<?xml version="1.0" encoding="UTF-8" standalone="no"?>
<svg width="515px" height="222px" viewBox="0 0 515 222" version="1.1" xmlns="http://www.w3.org/2000/svg" xmlns:xlink="http://www.w3.org/1999/xlink" xmlns:sketch="http://www.bohemiancoding.com/sketch/ns">
    <!-- Generator: Sketch 3.3.3 (12072) - http://www.bohemiancoding.com/sketch -->
    <title>Untitled</title>
    <desc>Created with Sketch.</desc>
    <defs></defs>
    <g id="Page-1" stroke="none" stroke-width="1" fill="none" fill-rule="nonzero" sketch:type="MSPage">
        <g id="confetti-logo-black" sketch:type="MSLayerGroup" fill="#000000">
            <g id="Page-1">
                <g id="confetti-logo-black">
                    <path d="M455.626833,79.0563174 C451.474726,91.2820004 444.32821,104.188833 434.422169,116.426172 C429.096457,123.005244 412.652145,130.306343 400.270801,130.600506 C383.28469,131.004072 374.588501,119.776686 378.888038,96.4291224 C380.285162,88.8423844 381.938968,82.0028854 383.78771,75.9886104 C382.477938,75.6787114 381.213592,75.3619024 380.009067,75.0449964 C379.270795,74.8507594 378.607503,74.6701784 378.028871,74.5078044 C377.678894,74.4095954 377.433075,74.3387264 377.301115,74.2997494 C375.342191,73.7211444 375.40848,70.9240624 377.392614,70.4389044 C377.54782,70.4009534 377.839297,70.3311014 378.254127,70.2338974 C378.942253,70.0726554 379.727813,69.8931884 380.597911,69.7000464 C382.430231,69.2933124 384.361883,68.8866494 386.351649,68.4946644 C388.231155,63.5662354 390.25733,59.3901364 392.379629,56.0302034 C397.435912,48.0253134 403.205297,44.8777624 407.102814,48.9149904 C409.850277,51.7609404 410.447239,57.7862514 408.888276,65.7151954 C410.147034,65.7243824 411.296818,65.7877634 412.330469,65.9089224 C417.52402,66.5176804 420.464484,68.8809644 418.998312,73.0457914 C417.450503,77.4425214 412.47179,79.1712724 404.866784,79.0663954 C400.842709,89.3668994 394.415383,100.993068 385.639863,113.32725 C377.409889,124.894655 356.73156,132.206533 338.664621,130.597687 C323.271902,129.226978 313.045489,121.842158 311.110256,109.489807 C310.854597,109.65311 310.593342,109.818286 310.32645,109.985397 C307.210253,111.936562 303.450876,114.082153 298.080361,117.015182 C296.79416,117.717622 286.73154,123.157303 283.708063,124.82081 C274.929733,129.65062 268.532386,133.449531 263.218951,137.118028 C249.822387,146.36727 245.925196,153.037484 251.478967,157.919752 C259.602296,163.495555 264.914717,159.510746 269.268134,145.431503 C272.784006,134.060938 274.659446,121.098405 278.000903,90.0778164 C278.1088,89.0760394 278.1088,89.0760394 278.216779,88.0738734 C281.942744,53.5031194 284.266632,38.6250984 288.916684,26.6174293 C296.311766,7.52136459 311.171712,-0.155735714 323.442698,6.30974189 C335.673123,12.7538491 338.672754,29.7750594 328.511443,47.7001724 C321.388046,60.2662374 309.968501,71.4481294 293.688426,83.3169164 C288.266728,87.2695384 285.928026,88.8541424 274.16438,96.6838624 C266.311387,101.910705 262.387377,104.668619 259.099222,107.406137 C251.480873,113.748711 250.981788,116.780263 257.588507,120.008472 C257.804417,120.089208 257.99701,120.205335 258.163206,120.347616 C258.690084,120.77124 258.905378,121.376582 258.870471,121.967067 C258.85851,122.334344 258.745464,122.701976 258.51627,123.024772 C258.344235,123.282711 258.114189,123.502238 257.834971,123.655052 L257.834971,123.655052 C249.959761,129.484896 243.139304,130.636637 238.552201,127.238783 C234.497281,124.235139 233.19222,118.17292 234.952004,112.306972 C239.359912,97.6139434 241.038921,89.1851234 240.411913,83.7271544 C239.79813,78.3843104 236.908386,76.1629184 230.061017,76.1629194 C220.373276,76.1629204 215.685961,84.3584514 213.045953,101.272651 C212.789975,102.912672 212.5502,104.629247 212.28475,106.682765 C212.132892,107.857538 211.642178,111.789871 211.623915,111.934167 C210.659451,119.554254 209.953297,123.218569 208.629694,125.961644 C206.601693,130.164537 203.029473,130.981602 198.849665,127.899589 C196.989216,126.527772 195.953697,125.621892 195.209887,124.618022 C193.646262,122.507702 193.655344,120.599728 194.755164,116.493548 C194.871398,116.059588 196.074768,111.793872 196.511995,110.143608 C197.349154,106.983839 198.098339,103.784379 198.824015,100.134263 C199.464235,96.9139934 199.86089,93.9420924 200.061451,90.9655754 C196.949966,95.3264834 192.149235,98.2076594 186.133046,99.4025504 C175.744942,101.465759 163.755857,97.8537284 158.293278,90.8082644 C153.504395,84.6317124 153.673373,76.6030914 158.309081,71.3355744 C163.204934,65.7724574 171.485131,64.9151174 180.042307,69.8627014 C189.455334,75.3051224 193.318221,89.7965784 189.059929,103.020259 C184.164541,118.222372 170.204171,128.469183 149.153105,129.449816 C134.532133,130.130912 124.127648,126.52046 118.254209,119.32045 C117.714143,118.658405 117.216888,117.970258 116.762102,117.25833 L116.762102,117.25833 C107.347659,125.442313 92.0529085,130.514093 75.9953835,131.541654 C44.7007975,133.544276 22.2170148,125.792284 9.95692616,110.253786 C-1.02657704,96.3332394 -2.86081214,77.0074854 4.14536726,57.6080724 C11.0848365,38.3933734 25.9606296,21.1478317 45.2892445,10.7396716 C66.9246515,-0.910660614 92.6119955,-3.42290191 119.619439,4.88012929 C129.173492,7.81737909 135.106251,14.0704163 135.58966,21.0859103 C136.072635,28.0951074 130.967665,34.0000254 122.450451,35.8236714 C118.331085,36.7056814 115.772763,36.1108474 115.336042,33.2369274 C115.192859,32.2946874 115.369404,31.3124864 115.795004,30.0216854 C115.942676,29.5738124 116.116827,29.0991784 116.361881,28.4648774 C116.424897,28.3017674 116.86232,27.1833809 116.990915,26.8478792 C117.808087,24.7159053 118.238374,23.2404015 118.38177,21.8200753 C118.84035,17.2779044 115.846676,14.2987676 106.374593,12.747969 C88.0850315,9.75354509 72.3373045,14.2750986 60.1450065,24.9612022 C49.2175835,34.5386894 41.6958895,48.7339354 38.9201215,64.1716404 C36.2075055,79.2581174 38.3145365,94.0753204 44.8621815,104.720544 C51.9601015,116.26041 63.7320475,122.274871 79.4000825,121.22598 C93.3729235,120.290575 102.211483,117.140158 112.306636,110.332615 C112.760175,110.026777 113.189549,109.733994 113.618149,109.437467 C112.701155,105.02833 112.91026,100.181882 114.196501,95.2283784 C119.037543,76.5848064 136.140936,63.5622134 151.016291,70.8215854 C152.640127,71.6140384 152.463896,73.9829164 150.740678,74.5263684 C139.985803,77.9181404 132.324882,89.9376054 131.955707,102.434723 C131.577806,115.227189 138.782157,123.508096 151.994489,122.549992 C162.068627,121.819457 169.112342,112.881272 171.672226,100.053861 C173.801916,89.3821254 171.73813,79.7029604 168.525857,79.7029584 C163.344216,79.7029554 161.336476,82.3594584 164.522968,86.5242894 C170.014087,93.7013294 179.070695,95.3870434 187.715301,91.8118734 C194.375879,89.0572424 199.018397,83.8621134 199.91996,78.2857984 L199.91996,78.2857984 C199.914916,78.2138684 199.909815,78.1417884 199.904657,78.0695554 C199.468025,71.9550754 199.462539,71.8303674 199.763583,70.4326944 C200.381621,67.5632964 202.717529,66.9218004 205.578759,68.3084534 C213.867916,72.3256714 215.051937,82.8739684 211.346377,96.8550714 C208.718227,106.7711 203.342498,118.28524 200.83034,119.924714 C199.702605,120.660692 198.268881,120.796528 197.44869,119.231431 C197.067731,118.50448 197.109416,117.877138 197.331577,116.975103 C197.561325,116.042259 198.075852,114.685864 198.927152,112.697547 C199.743265,110.791415 204.103019,101.189767 205.179078,98.7423334 C205.950807,96.9870794 206.652501,95.3531894 207.302928,93.7910904 C208.788585,90.2230624 209.984581,87.0815574 210.892336,84.3069034 C216.697352,66.5632334 230.749832,58.9848444 243.689075,64.1452044 C256.559625,69.2781684 261.982774,84.5062504 254.702995,101.318939 C254.613328,101.526025 254.525091,101.731263 254.438275,101.934659 C257.12946,99.6592314 260.429008,97.1162754 264.483725,94.1565854 C268.406332,91.2933274 283.542212,80.6437304 283.90471,80.3856594 C292.402849,74.3356294 298.590978,69.6583144 303.932103,65.1184614 C309.240365,60.6065414 313.369767,56.4867454 316.328115,52.6586934 C326.599839,39.3672544 329.527179,25.6287734 325.689614,18.7540871 C322.604926,13.2281193 315.968891,15.7859746 309.967366,28.2096334 C306.050387,36.3181044 304.242058,49.0370914 301.775741,79.1404964 C301.814684,78.6651664 301.284496,85.1563844 301.136617,86.9467034 C300.889391,89.9397974 300.677418,92.4431504 300.466534,94.8419734 C297.766976,125.549631 294.564388,143.713653 288.306753,156.156674 C279.963227,172.747394 266.579729,175.608965 247.905004,162.422074 C242.006994,158.257279 240.123218,153.268945 242.263833,147.899332 C244.020922,143.491774 248.41539,138.998261 255.305456,134.076217 C261.419102,129.708822 268.834484,125.389404 280.297044,119.269928 C282.310579,118.19497 290.292741,113.972613 292.223531,112.941285 C296.677644,110.562129 300.029526,108.715469 302.981605,106.993948 C306.17594,105.131154 308.819001,103.453747 310.924453,101.940573 C311.121036,99.8244214 311.514981,97.6023104 312.116633,95.2777074 C316.404885,78.7092114 331.295917,67.3379504 347.261511,65.9348194 C363.514834,64.5064004 374.139133,74.1901834 370.09874,90.4603714 C366.438911,105.198065 343.126068,107.475839 319.818299,97.3342144 C319.791049,97.3223584 319.764294,97.3101264 319.738031,97.2975334 C319.631851,97.1523154 319.514145,97.0090094 319.384627,96.8677814 C319.219706,96.6879484 319.031083,96.5460444 318.828711,96.4414294 C318.161141,95.1638074 319.082876,93.2953784 320.861793,93.5154274 C321.735393,93.6234904 322.636192,93.7382034 323.63019,93.8674924 C338.724392,95.8307884 340.628719,96.0127514 344.882399,95.4949144 C350.010441,94.8706324 352.747484,92.6487424 354.036543,87.6525254 C356.00205,80.0344904 353.005573,75.2314404 348.021243,75.6946814 C341.868981,76.2664694 335.199825,83.9077374 331.467365,97.3272664 C327.72334,110.78837 334.673809,119.752775 347.849975,121.511474 C361.050521,123.273427 375.695166,117.000188 382.996779,105.279705 C385.093485,101.914091 387.125813,98.2780294 389.096102,94.4017864 C391.822553,89.0379104 394.156364,83.8683034 396.38271,78.3762974 L396.38271,78.3762974 C396.723643,78.4221414 397.062653,78.4658814 397.399622,78.5074584 C399.840158,78.8085884 402.108909,78.9956194 404.190338,79.0524414 C400.083639,101.508283 399.303151,112.336121 401.498655,117.999175 C403.823693,123.99635 410.989681,123.167667 427.411006,113.911833 C432.288108,111.162867 437.438748,103.042494 442.633781,90.9646394 C444.266536,87.1686694 445.825274,83.1792294 447.488315,78.6354454 C450.139452,78.9312094 452.576079,79.0834254 454.776953,79.0700644 C454.201562,82.7608754 453.355571,88.1476424 453.148786,89.4951704 C452.412819,94.2911284 451.92117,97.8126314 451.566003,100.959654 C450.719646,108.458956 450.726359,113.493509 451.682319,116.792429 C453.553683,123.250315 460.173184,123.201993 476.133153,114.606169 C481.881789,111.510031 487.339209,104.272307 490.638776,96.6448064 C491.78404,93.9973364 492.405346,91.7093384 492.322827,91.3360054 C492.438194,91.8579474 492.910532,92.4297694 493.753377,92.5182484 C494.253897,92.5707904 494.478896,92.4661364 494.586518,92.3775514 C494.213668,92.6844484 493.528423,93.5525934 492.647369,94.9168754 C489.936134,99.1151304 488.589467,108.369489 490.469451,114.002959 C492.754523,120.850297 499.173216,122.299424 511.425195,115.831734 C513.673134,114.645071 515.581555,117.875524 513.457398,119.271718 C499.116251,128.698059 488.106164,129.619331 481.425431,122.843029 C475.938212,117.277314 474.290868,106.958269 476.424839,96.3952944 C479.123863,83.0353594 483.337636,74.3758404 488.410388,70.8895384 C493.433353,67.4374524 498.725923,69.5057284 501.348658,75.2801074 C503.840478,80.7662524 503.641797,88.6371234 500.468786,96.4716944 C496.741584,105.674634 489.273063,114.289112 478.146994,121.292989 C466.121188,128.863253 451.705748,132.20299 441.474229,129.23672 C429.150839,125.663985 424.214861,113.911316 428.903786,95.2904574 C430.679271,88.2395774 432.515363,81.9182644 434.381543,76.3570074 C432.499769,75.9323364 430.695767,75.4887604 429.009067,75.0449964 C428.270795,74.8507594 427.607503,74.6701784 427.028871,74.5078044 C426.678894,74.4095954 426.433075,74.3387264 426.301115,74.2997494 C424.342191,73.7211444 424.40848,70.9240624 426.392614,70.4389044 C426.54782,70.4009534 426.839297,70.3311014 427.254127,70.2338974 C427.942253,70.0726554 428.727813,69.8931884 429.597911,69.7000464 C432.051065,69.1555004 434.682267,68.6110834 437.392603,68.1018444 C439.913182,61.7781244 442.458293,56.8357594 444.955501,53.3471104 C450.175899,46.0541084 456.025277,45.2077004 458.453824,51.8021944 C459.654669,55.0629804 459.815552,59.9409914 458.952337,65.7368324 C459.802032,65.7658514 460.5956,65.8227844 461.330469,65.9089224 C466.52402,66.5176804 469.464484,68.8809644 467.998312,73.0457914 C466.573299,77.0937054 462.240171,78.8801784 455.626833,79.0563174 L455.626833,79.0563174 L455.626833,79.0563174 Z M508.565259,54.7829944 C511.736299,49.9865214 510.668736,45.2345634 504.439524,43.4583324 C498.301641,41.7081444 494.689331,44.9292444 494.459298,50.5008264 C494.27992,54.8455054 496.137051,59.8732724 498.826004,60.7773814 C501.549179,61.6929974 506.076475,58.5474954 508.565259,54.7829944 L508.565259,54.7829944 L508.565259,54.7829944 Z M99.1362015,142.505155 C81.2520275,143.960635 67.0597655,145.633693 57.6209255,147.422563 C52.6759775,148.35974 49.0314795,149.326963 46.7108255,150.346623 C43.4801275,151.766142 41.8411285,153.890786 43.7201035,156.324581 C44.6169415,157.486237 48.3507355,162.4643 49.1678255,163.473174 C50.8151135,165.507106 52.0480205,166.632231 53.5455045,167.290242 C56.2541535,168.480453 57.0096235,168.346803 67.3525645,165.617475 C78.4366285,162.692577 88.7818375,160.549761 104.26773,158.430553 C125.918541,155.46769 153.041164,153.388148 187.086162,152.427748 C201.880167,152.010414 216.147767,151.671795 229.898203,151.412257 C230.813993,151.394972 231.601,150.757786 231.808476,149.865641 L234.114626,139.949195 C234.407116,138.691486 233.448857,137.490371 232.157598,137.496189 C183.740582,137.714344 135.194016,139.570637 99.1362015,142.505155 L99.1362015,142.505155 L99.1362015,142.505155 Z M306.963021,140.142102 L305.052372,148.357961 C304.761705,149.607835 305.706621,150.804183 306.989831,150.810956 C395.085752,151.275996 455.419764,156.286698 488.992025,166.175179 C491.342522,166.867502 492.637399,163.538362 490.436841,162.460542 C461.550065,148.311977 413.097392,141.854497 308.973594,138.596104 C308.020561,138.566281 307.179,139.213385 306.963021,140.142102 L306.963021,140.142102 L306.963021,140.142102 Z" id="Stroke-1" sketch:type="MSShapeGroup"></path>
                    <text id="www.confetti.events" sketch:type="MSTextLayer" font-family="Source Sans Pro" font-size="28" font-weight="normal" sketch:alignment="middle" letter-spacing="3.87692308">
                        <tspan x="90.7772307" y="213">WWW.CONFETTI.EVENTS</tspan>
                    </text>
                </g>
            </g>
        </g>
    </g>
</svg>
