<?xml version="1.0" encoding="UTF-8" standalone="no"?>
<svg width="660px" height="310px" viewBox="0 0 660 310" version="1.1" xmlns="http://www.w3.org/2000/svg" xmlns:xlink="http://www.w3.org/1999/xlink" xmlns:sketch="http://www.bohemiancoding.com/sketch/ns">
    <!-- Generator: Sketch Beta 3.3.2 (12041) - http://www.bohemiancoding.com/sketch -->
    <title>confetti-logo-black</title>
    <desc>Created with Sketch Beta.</desc>
    <defs></defs>
    <g id="Page-1" stroke="none" stroke-width="1" fill="none" fill-rule="nonzero" sketch:type="MSPage">
        <g id="confetti-logo-black" sketch:type="MSArtboardGroup" fill="#000000">
            <path d="M524.759177,151.174648 C520.60707,163.400331 513.460554,176.307164 503.554513,188.544503 C498.228801,195.123575 481.784489,202.424674 469.403145,202.718837 C452.417034,203.122403 443.720845,191.895017 448.020382,168.547453 C449.417506,160.960715 451.071312,154.121216 452.920054,148.106941 C451.610282,147.797042 450.345936,147.480233 449.141411,147.163327 C448.403139,146.96909 447.739847,146.788509 447.161215,146.626135 C446.811238,146.527926 446.565419,146.457057 446.433459,146.41808 C444.474535,145.839475 444.540824,143.042393 446.524958,142.557235 C446.680164,142.519284 446.971641,142.449432 447.386471,142.352228 C448.074597,142.190986 448.860157,142.011519 449.730255,141.818377 C451.562575,141.411643 453.494227,141.00498 455.483993,140.612995 C457.363499,135.684566 459.389674,131.508467 461.511973,128.148534 C466.568256,120.143644 472.337641,116.996093 476.235158,121.033321 C478.982621,123.879271 479.579583,129.904582 478.02062,137.833526 C479.279378,137.842713 480.429162,137.906094 481.462813,138.027253 C486.656364,138.636011 489.596828,140.999295 488.130656,145.164122 C486.582847,149.560852 481.604134,151.289603 473.999128,151.184726 C469.975053,161.48523 463.547727,173.111399 454.772207,185.445581 C446.542233,197.012986 425.863904,204.324864 407.796965,202.716018 C392.404246,201.345309 382.177833,193.960489 380.2426,181.608138 C379.986941,181.771441 379.725686,181.936617 379.458794,182.103728 C376.342597,184.054893 372.58322,186.200484 367.212705,189.133513 C365.926504,189.835953 355.863884,195.275634 352.840407,196.939141 C344.062077,201.768951 337.66473,205.567862 332.351295,209.236359 C318.954731,218.485601 315.05754,225.155815 320.611311,230.038083 C328.73464,235.613886 334.047061,231.629077 338.400478,217.549834 C341.91635,206.179269 343.79179,193.216736 347.133247,162.196147 C347.241144,161.19437 347.241144,161.19437 347.349123,160.192204 C351.075088,125.62145 353.398976,110.743429 358.049028,98.7357599 C365.44411,79.6396952 380.304056,71.9625949 392.575042,78.4280725 C404.805467,84.8721797 407.805098,101.89339 397.643787,119.818503 C390.52039,132.384568 379.100845,143.56646 362.82077,155.435247 C357.399072,159.387869 355.06037,160.972473 343.296724,168.802193 C335.443731,174.029036 331.519721,176.78695 328.231566,179.524468 C320.613217,185.867042 320.114132,188.898594 326.720851,192.126803 C326.936761,192.207539 327.129354,192.323666 327.29555,192.465947 C327.822428,192.889571 328.037722,193.494913 328.002815,194.085398 C327.990854,194.452675 327.877808,194.820307 327.648614,195.143103 C327.476579,195.401042 327.246533,195.620569 326.967315,195.773383 L326.967315,195.773383 C319.092105,201.603227 312.271648,202.754968 307.684545,199.357114 C303.629625,196.35347 302.324564,190.291251 304.084348,184.425303 C308.492256,169.732274 310.171265,161.303454 309.544257,155.845485 C308.930474,150.502641 306.04073,148.281249 299.193361,148.28125 C289.50562,148.281251 284.818305,156.476782 282.178297,173.390982 C281.922319,175.031003 281.682544,176.747578 281.417094,178.801096 C281.265236,179.975869 280.774522,183.908202 280.756259,184.052498 C279.791795,191.672585 279.085641,195.3369 277.762038,198.079975 C275.734037,202.282868 272.161817,203.099933 267.982009,200.01792 C266.12156,198.646103 265.086041,197.740223 264.342231,196.736353 C262.778606,194.626033 262.787688,192.718059 263.887508,188.611879 C264.003742,188.177919 265.207112,183.912203 265.644339,182.261939 C266.481498,179.10217 267.230683,175.90271 267.956359,172.252594 C268.596579,169.032324 268.993234,166.060423 269.193795,163.083906 C266.08231,167.444814 261.281579,170.32599 255.26539,171.520881 C244.877286,173.58409 232.888201,169.972059 227.425622,162.926595 C222.636739,156.750043 222.805717,148.721422 227.441425,143.453905 C232.337278,137.890788 240.617475,137.033448 249.174651,141.981032 C258.587678,147.423453 262.450565,161.914909 258.192273,175.13859 C253.296885,190.340703 239.336515,200.587514 218.285449,201.568147 C203.664477,202.249243 193.259992,198.638791 187.386553,191.438781 C186.846487,190.776736 186.349232,190.088589 185.894446,189.376661 L185.894446,189.376661 C176.480003,197.560644 161.185252,202.632424 145.127727,203.659985 C113.833141,205.662607 91.3493583,197.910615 79.0892697,182.372117 C68.1057665,168.45157 66.2715314,149.125816 73.2777108,129.726403 C80.21718,110.511704 95.0929731,93.2661623 114.421588,82.8580022 C136.056995,71.20767 161.744339,68.6954287 188.751783,76.9984599 C198.305836,79.9357097 204.238595,86.1887469 204.722004,93.2042409 C205.204979,100.213438 200.100009,106.118356 191.582795,107.942002 C187.463429,108.824012 184.905107,108.229178 184.468386,105.355258 C184.325203,104.413018 184.501748,103.430817 184.927348,102.140016 C185.07502,101.692143 185.249171,101.217509 185.494225,100.583208 C185.557241,100.420098 185.994664,99.3017115 186.123259,98.9662098 C186.940431,96.8342359 187.370718,95.3587321 187.514114,93.9384059 C187.972694,89.396235 184.97902,86.4170982 175.506937,84.8662996 C157.217375,81.8718757 141.469648,86.3934292 129.27735,97.0795328 C118.349927,106.65702 110.828233,120.852266 108.052465,136.289971 C105.339849,151.376448 107.44688,166.193651 113.994525,176.838875 C121.092445,188.378741 132.864391,194.393202 148.532426,193.344311 C162.505267,192.408906 171.343827,189.258489 181.43898,182.450946 C181.892519,182.145108 182.321893,181.852325 182.750493,181.555798 C181.833499,177.146661 182.042604,172.300213 183.328845,167.346709 C188.169887,148.703137 205.27328,135.680544 220.148635,142.939916 C221.772471,143.732369 221.59624,146.101247 219.873022,146.644699 C209.118147,150.036471 201.457226,162.055936 201.088051,174.553054 C200.71015,187.34552 207.914501,195.626427 221.126833,194.668323 C231.200971,193.937788 238.244686,184.999603 240.80457,172.172192 C242.93426,161.500456 240.870474,151.821291 237.658201,151.821289 C232.47656,151.821286 230.46882,154.477789 233.655312,158.64262 C239.146431,165.81966 248.203039,167.505374 256.847645,163.930204 C263.508223,161.175573 268.150741,155.980444 269.052304,150.404129 L269.052304,150.404129 C269.04726,150.332199 269.042159,150.260119 269.037001,150.187886 C268.600369,144.073406 268.594883,143.948698 268.895927,142.551025 C269.513965,139.681627 271.849873,139.040131 274.711103,140.426784 C283.00026,144.444002 284.184281,154.992299 280.478721,168.973402 C277.850571,178.889431 272.474842,190.403571 269.962684,192.043045 C268.834949,192.779023 267.401225,192.914859 266.581034,191.349762 C266.200075,190.622811 266.24176,189.995469 266.463921,189.093434 C266.693669,188.16059 267.208196,186.804195 268.059496,184.815878 C268.875609,182.909746 273.235363,173.308098 274.311422,170.860664 C275.083151,169.10541 275.784845,167.47152 276.435272,165.909421 C277.920929,162.341393 279.116925,159.199888 280.02468,156.425234 C285.829696,138.681564 299.882176,131.103175 312.821419,136.263535 C325.691969,141.396499 331.115118,156.624581 323.835339,173.43727 C323.745672,173.644356 323.657435,173.849594 323.570619,174.05299 C326.261804,171.777562 329.561352,169.234606 333.616069,166.274916 C337.538676,163.411658 352.674556,152.762061 353.037054,152.50399 C361.535193,146.45396 367.723322,141.776645 373.064447,137.236792 C378.372709,132.724872 382.502111,128.605076 385.460459,124.777024 C395.732183,111.485585 398.659523,97.747104 394.821958,90.8724177 C391.73727,85.3464499 385.101235,87.9043052 379.09971,100.327964 C375.182731,108.436435 373.374402,121.155422 370.908085,151.258827 C370.947028,150.783497 370.41684,157.274715 370.268961,159.065034 C370.021735,162.058128 369.809762,164.561481 369.598878,166.960304 C366.89932,197.667962 363.696732,215.831984 357.439097,228.275005 C349.095571,244.865725 335.712073,247.727296 317.037348,234.540405 C311.139338,230.37561 309.255562,225.387276 311.396177,220.017663 C313.153266,215.610105 317.547734,211.116592 324.4378,206.194548 C330.551446,201.827153 337.966828,197.507735 349.429388,191.388259 C351.442923,190.313301 359.425085,186.090944 361.355875,185.059616 C365.809988,182.68046 369.16187,180.8338 372.113949,179.112279 C375.308284,177.249485 377.951345,175.572078 380.056797,174.058904 C380.25338,171.942752 380.647325,169.720641 381.248977,167.396038 C385.537229,150.827542 400.428261,139.456281 416.393855,138.05315 C432.647178,136.624731 443.271477,146.308514 439.231084,162.578702 C435.571255,177.316396 412.258412,179.59417 388.950643,169.452545 C388.923393,169.440689 388.896638,169.428457 388.870375,169.415864 C388.764195,169.270646 388.646489,169.12734 388.516971,168.986112 C388.35205,168.806279 388.163427,168.664375 387.961055,168.55976 C387.293485,167.282138 388.21522,165.413709 389.994137,165.633758 C390.867737,165.741821 391.768536,165.856534 392.762534,165.985823 C407.856736,167.949119 409.761063,168.131082 414.014743,167.613245 C419.142785,166.988963 421.879828,164.767073 423.168887,159.770856 C425.134394,152.152821 422.137917,147.349771 417.153587,147.813012 C411.001325,148.3848 404.332169,156.026068 400.599709,169.445597 C396.855684,182.906701 403.806153,191.871106 416.982319,193.629805 C430.182865,195.391758 444.82751,189.118519 452.129123,177.398036 C454.225829,174.032422 456.258157,170.39636 458.228446,166.520117 C460.954897,161.156241 463.288708,155.986634 465.515054,150.494628 L465.515054,150.494628 C465.855987,150.540472 466.194997,150.584212 466.531966,150.625789 C468.972502,150.926919 471.241253,151.11395 473.322682,151.170772 C469.215983,173.626614 468.435495,184.454452 470.630999,190.117506 C472.956037,196.114681 480.122025,195.285998 496.54335,186.030164 C501.420452,183.281198 506.571092,175.160825 511.766125,163.08297 C513.39888,159.287 514.957618,155.29756 516.620659,150.753776 C519.271796,151.04954 521.708423,151.201756 523.909297,151.188395 C523.333906,154.879206 522.487915,160.265973 522.28113,161.613501 C521.545163,166.409459 521.053514,169.930962 520.698347,173.077985 C519.85199,180.577287 519.858703,185.61184 520.814663,188.91076 C522.686027,195.368646 529.305528,195.320324 545.265497,186.7245 C551.014133,183.628362 556.471553,176.390638 559.77112,168.763137 C560.916384,166.115667 561.53769,163.827669 561.455171,163.454336 C561.570538,163.976278 562.042876,164.5481 562.885721,164.636579 C563.386241,164.689121 563.61124,164.584467 563.718862,164.495882 C563.346012,164.802779 562.660767,165.670924 561.779713,167.035206 C559.068478,171.233461 557.721811,180.48782 559.601795,186.12129 C561.886867,192.968628 568.30556,194.417755 580.557539,187.950065 C582.805478,186.763402 584.713899,189.993855 582.589742,191.390049 C568.248595,200.81639 557.238508,201.737662 550.557775,194.96136 C545.070556,189.395645 543.423212,179.0766 545.557183,168.513625 C548.256207,155.15369 552.46998,146.494171 557.542732,143.007869 C562.565697,139.555783 567.858267,141.624059 570.481002,147.398438 C572.972822,152.884583 572.774141,160.755454 569.60113,168.590025 C565.873928,177.792965 558.405407,186.407443 547.279338,193.41132 C535.253532,200.981584 520.838092,204.321321 510.606573,201.355051 C498.283183,197.782316 493.347205,186.029647 498.03613,167.408788 C499.811615,160.357908 501.647707,154.036595 503.513887,148.475338 C501.632113,148.050667 499.828111,147.607091 498.141411,147.163327 C497.403139,146.96909 496.739847,146.788509 496.161215,146.626135 C495.811238,146.527926 495.565419,146.457057 495.433459,146.41808 C493.474535,145.839475 493.540824,143.042393 495.524958,142.557235 C495.680164,142.519284 495.971641,142.449432 496.386471,142.352228 C497.074597,142.190986 497.860157,142.011519 498.730255,141.818377 C501.183409,141.273831 503.814611,140.729414 506.524947,140.220175 C509.045526,133.896455 511.590637,128.95409 514.087845,125.465441 C519.308243,118.172439 525.157621,117.326031 527.586168,123.920525 C528.787013,127.181311 528.947896,132.059322 528.084681,137.855163 C528.934376,137.884182 529.727944,137.941115 530.462813,138.027253 C535.656364,138.636011 538.596828,140.999295 537.130656,145.164122 C535.705643,149.212036 531.372515,150.998509 524.759177,151.174648 L524.759177,151.174648 L524.759177,151.174648 Z M577.697603,126.901325 C580.868643,122.104852 579.80108,117.352894 573.571868,115.576663 C567.433985,113.826475 563.821675,117.047575 563.591642,122.619157 C563.412264,126.963836 565.269395,131.991603 567.958348,132.895712 C570.681523,133.811328 575.208819,130.665826 577.697603,126.901325 L577.697603,126.901325 L577.697603,126.901325 Z M168.268545,214.623486 C150.384371,216.078966 136.192109,217.752024 126.753269,219.540894 C121.808321,220.478071 118.163823,221.445294 115.843169,222.464954 C112.612471,223.884473 110.973472,226.009117 112.852447,228.442912 C113.749285,229.604568 117.483079,234.582631 118.300169,235.591505 C119.947457,237.625437 121.180364,238.750562 122.677848,239.408573 C125.386497,240.598784 126.141967,240.465134 136.484908,237.735806 C147.568972,234.810908 157.914181,232.668092 173.400074,230.548884 C195.050885,227.586021 222.173508,225.506479 256.218506,224.546079 C271.012511,224.128745 285.280111,223.790126 299.030547,223.530588 C299.946337,223.513303 300.733344,222.876117 300.94082,221.983972 L303.24697,212.067526 C303.53946,210.809817 302.581201,209.608702 301.289942,209.61452 C252.872926,209.832675 204.32636,211.688968 168.268545,214.623486 L168.268545,214.623486 L168.268545,214.623486 Z M376.095365,212.260433 L374.184716,220.476292 C373.894049,221.726166 374.838965,222.922514 376.122175,222.929287 C464.218096,223.394327 524.552108,228.405029 558.124369,238.29351 C560.474866,238.985833 561.769743,235.656693 559.569185,234.578873 C530.682409,220.430308 482.229736,213.972828 378.105938,210.714435 C377.152905,210.684612 376.311344,211.331716 376.095365,212.260433 L376.095365,212.260433 L376.095365,212.260433 Z" id="Stroke-1" sketch:type="MSShapeGroup"></path>
        </g>
    </g>
</svg>
