<?xml version="1.0" encoding="utf-8"?>
<!-- Generator: Adobe Illustrator 18.1.0, SVG Export Plug-In . SVG Version: 6.00 Build 0)  -->
<!DOCTYPE svg PUBLIC "-//W3C//DTD SVG 1.1//EN" "http://www.w3.org/Graphics/SVG/1.1/DTD/svg11.dtd">
<svg version="1.1" id="Layer_1" xmlns:sketch="http://www.bohemiancoding.com/sketch/ns"
	 xmlns="http://www.w3.org/2000/svg" xmlns:xlink="http://www.w3.org/1999/xlink" x="0px" y="0px" viewBox="-295 258.3 251 79"
	 enable-background="new -295 258.3 251 79" xml:space="preserve">
<title>jsonapi</title>
<desc>Created with Sketch.</desc>
<g id="Page-1" sketch:type="MSPage">
	<rect id="Rectangle-1" x="-295" y="258.3" sketch:type="MSShapeGroup" fill="none" width="251" height="79">
	</rect>
	<g enable-background="new    ">
		<path d="M-240.6,310.2c0,0.5-0.2,1-0.6,1.4c0.6,0.5,1.3,0.7,2,0.7c1.4,0,2.3-0.4,2.9-1.2c0.6-0.8,0.9-2.1,0.9-3.8l0-11.3
			c0-2.1-0.1-3.4-0.2-3.9s-0.4-0.7-1-0.7c-0.3,0-0.6,0-1,0.1c-0.2,0.1-0.4,0.1-0.7,0.1c-0.8,0-1.2-0.4-1.2-1.2
			c0-0.8,0.5-1.2,1.5-1.2c0.4,0,0.7,0,0.9,0c0.8,0.1,1.3,0.1,1.6,0.1c0.2,0,0.5,0,0.9-0.1c0.4-0.1,0.7-0.1,0.9-0.1
			c0.7,0,1,0.4,1,1.2c0,0.1,0,0.4,0,0.7c0,0.4,0,0.8,0,1c0,0.4-0.1,1.2-0.1,2.6c0,1.5-0.1,2.7-0.1,3.5v8.1c0,1.4-0.1,2.5-0.2,3.2
			c-0.2,1.1-0.6,2.1-1.3,2.9c-1.2,1.4-2.8,2.1-4.8,2.1c-1.4,0-2.6-0.4-3.6-1.1c-1-0.7-1.4-1.6-1.4-2.7c0-0.6,0.2-1.1,0.5-1.5
			c0.3-0.4,0.8-0.6,1.3-0.6c0.5,0,0.8,0.1,1.2,0.4S-240.6,309.8-240.6,310.2z M-234.5,287.4c-0.6,0-1-0.2-1.4-0.6
			c-0.4-0.4-0.6-0.9-0.6-1.4s0.2-1,0.6-1.4s0.9-0.6,1.4-0.6c0.6,0,1,0.2,1.4,0.6c0.4,0.4,0.6,0.9,0.6,1.4c0,0.6-0.2,1-0.6,1.4
			C-233.5,287.2-234,287.4-234.5,287.4z"/>
		<path d="M-219.3,288.7c1.6,0,2.9,0.4,4,1.3v-0.1c0-0.9,0.4-1.3,1.2-1.3c0.8,0,1.2,0.4,1.2,1.2c0,0.1,0,0.5-0.1,1.1
			c-0.1,0.5-0.1,1-0.1,1.4c0,0.3,0,0.7,0.1,1.3c0.1,0.6,0.1,1,0.1,1.3c0,0.9-0.4,1.4-1.2,1.4c-0.8,0-1.1-0.4-1.2-1.2v-1.2
			c0-0.7-0.4-1.3-1.2-1.9c-0.8-0.5-1.7-0.8-2.8-0.8c-1.1,0-2,0.3-2.8,0.8c-0.7,0.6-1.1,1.3-1.1,2.1c0,1.5,1.1,2.4,3.2,2.7l2.1,0.3
			c4.1,0.6,6.1,2.2,6.1,5.1c0,1.7-0.7,3.1-2,4.2c-1.3,1.1-3,1.6-5.2,1.6c-2,0-3.7-0.6-5.2-1.7c0,0.2,0,0.5,0,0.7
			c0,0.9-0.4,1.3-1.2,1.3c-0.9,0-1.3-0.5-1.3-1.5c0,0.2,0.1-0.5,0.2-1.9c0-0.3,0.1-0.7,0.1-1c0-0.6,0-1.1-0.1-1.6
			c-0.1-0.5-0.1-0.9-0.1-1.2c0-0.8,0.4-1.3,1.2-1.3c0.5,0,0.8,0.1,1,0.4c0.1,0.2,0.2,0.9,0.2,1.9c0,1,0.6,1.9,1.6,2.5
			c1.1,0.6,2.4,1,4,1c1.2,0,2.1-0.3,2.9-0.9c0.8-0.6,1.2-1.4,1.2-2.3c0-1.6-1.3-2.6-3.9-2.8c-2.5-0.3-4.4-0.7-5.7-1.5
			c-1.3-0.7-1.9-1.9-1.9-3.7c0-1.7,0.6-3,1.9-4.1C-223,289.2-221.4,288.7-219.3,288.7z"/>
		<path d="M-199.7,307.9c-2.5,0-4.5-0.9-6-2.6c-1.5-1.7-2.3-4.1-2.3-7c0-2.9,0.8-5.3,2.3-7c1.5-1.7,3.6-2.6,6.1-2.6
			c2.6,0,4.7,0.9,6.2,2.6c1.5,1.7,2.3,4,2.3,6.9c0,2.9-0.8,5.3-2.3,7.1C-195,307-197.1,307.9-199.7,307.9z M-199.5,291
			c-1.7,0-3,0.6-4,1.8s-1.5,2.8-1.6,5v0.5c0,2.3,0.5,4,1.4,5.3c0.9,1.3,2.3,1.9,4,1.9c1.8,0,3.1-0.6,4.1-1.9c1-1.3,1.5-3.1,1.5-5.3
			C-194,293.4-195.9,291-199.5,291z"/>
		<path d="M-181.6,290.4v1c1.4-1.8,3.4-2.7,5.8-2.7c1.3,0,2.5,0.3,3.7,1c1.2,0.7,1.9,1.5,2.3,2.5c0.3,0.8,0.5,1.9,0.5,3.2v6.8
			c0,1,0,1.6,0,1.8c0.1,0.8,0.4,1.2,1,1.2c0.2,0,0.5,0,0.8-0.1s0.6-0.1,0.7-0.1c0.3,0,0.6,0.1,0.8,0.3s0.3,0.5,0.3,0.8
			c0,0.4-0.1,0.7-0.4,0.9c-0.3,0.2-0.6,0.4-1,0.4c-0.3,0-0.9,0-1.7-0.1c-0.8-0.1-1.5-0.1-2.2-0.1c-0.6,0-1.1,0-1.5,0.1
			c-1.2,0.1-1.8,0.2-1.9,0.2c-1,0-1.4-0.4-1.4-1.3c0-0.7,0.4-1.1,1.2-1.1c0.2,0,0.4,0,0.7,0.1c0.5,0.1,0.8,0.1,0.9,0.1
			c0.6,0,0.9-0.7,1-2v-1.8v-2.2v-2.7c0-1.3-0.1-2.1-0.2-2.6c-0.2-0.9-0.7-1.6-1.4-2.1c-0.8-0.6-1.7-0.8-2.7-0.8
			c-1.9,0-3.3,0.7-4.1,2.1c-0.6,0.9-0.9,2.5-0.9,4.8v4.8c0,1.1,0.1,1.8,0.2,2.2s0.4,0.6,0.8,0.6c0.2,0,0.5,0,0.8-0.1
			c0.3-0.1,0.6-0.1,0.8-0.1c0.7,0,1.1,0.4,1.1,1.2c0,0.8-0.5,1.2-1.4,1.2c-0.2,0-0.8-0.1-1.9-0.2c-0.5-0.1-1.1-0.1-1.8-0.1
			c-0.5,0-1.2,0-2,0.1c-1.1,0.1-1.7,0.2-1.8,0.2c-1,0-1.5-0.4-1.5-1.2c0-0.8,0.4-1.2,1.2-1.2c0.1,0,0.3,0,0.7,0.1
			c0.3,0.1,0.7,0.1,1,0.1c0.7,0,1.1-0.7,1.1-2.1v-4v-4.4v-1.3c0-0.8-0.2-1.4-0.3-1.7c-0.2-0.3-0.4-0.5-0.8-0.5c-0.2,0-0.4,0-0.8,0.1
			c-0.3,0.1-0.6,0.1-0.8,0.1c-0.9,0-1.3-0.4-1.3-1.2c0-0.8,0.5-1.2,1.6-1.2c0.1,0,0.3,0,0.4,0l1.3,0.1c0.4,0,0.7,0,1-0.1
			c0.6-0.1,0.9-0.1,1-0.1C-181.9,289.3-181.6,289.6-181.6,290.4z"/>
	</g>
	<g enable-background="new    ">
		<path fill="#9B9B9B" d="M-159.3,295.7c-0.6,0-1.2-0.2-1.6-0.7c-0.4-0.4-0.6-1-0.6-1.6c0-0.6,0.2-1.2,0.6-1.6
			c0.4-0.4,1-0.7,1.6-0.7s1.2,0.2,1.6,0.7c0.4,0.4,0.6,1,0.6,1.6c0,0.6-0.2,1.2-0.6,1.6C-158.2,295.5-158.7,295.7-159.3,295.7z
			 M-159.3,307.9c-0.6,0-1.2-0.2-1.6-0.7c-0.4-0.4-0.6-1-0.6-1.6c0-0.6,0.2-1.2,0.6-1.6c0.4-0.4,1-0.7,1.6-0.7s1.2,0.2,1.6,0.7
			c0.4,0.4,0.6,1,0.6,1.6c0,0.6-0.2,1.2-0.6,1.6C-158.2,307.7-158.7,307.9-159.3,307.9z"/>
	</g>
	<g enable-background="new    ">
		<path d="M-136.3,307.7c-2,0-3.2-0.9-3.6-2.6c-1.2,1.8-3.1,2.7-5.8,2.7c-1.9,0-3.5-0.5-4.7-1.4s-1.7-2.2-1.7-3.9
			c0-2,0.9-3.5,2.6-4.4c0.6-0.4,1.2-0.6,1.7-0.7c0.5-0.1,1.4-0.2,2.8-0.4c2-0.2,3.3-0.5,3.9-0.9c0.6-0.4,0.9-1.1,0.9-2.1
			c0-1-0.3-1.8-1-2.3c-0.7-0.6-1.6-0.8-2.9-0.8c-1.1,0-2.1,0.3-3,0.9c-0.4,0.2-0.5,0.5-0.5,0.8c0,0.1,0.1,0.2,0.3,0.4
			c0.3,0.2,0.5,0.6,0.5,1.2c0,0.5-0.2,0.9-0.5,1.2c-0.3,0.3-0.8,0.5-1.3,0.5c-0.6,0-1.1-0.2-1.6-0.6c-0.4-0.4-0.6-1-0.6-1.6
			c0-1.3,0.7-2.5,2-3.5s2.9-1.4,4.8-1.4c4.4,0,6.6,2.1,6.6,6.3v7.3c0,1.1,0,1.8,0.1,2c0.1,0.8,0.6,1.3,1.2,1.3
			c0.8,0,1.3-0.8,1.3-2.3v-1.8c0-0.8,0.4-1.1,1.1-1.1c0.8,0,1.2,0.6,1.2,1.7v0.2v2.1C-132.6,306.6-133.9,307.7-136.3,307.7z
			 M-140.3,300.6V298c-0.5,0.5-1.1,0.8-1.7,1c-0.6,0.2-1.6,0.4-3.1,0.5c-2.7,0.3-4.1,1.3-4.1,3c0,0.9,0.3,1.6,1,2.2s1.6,0.8,2.7,0.8
			c1.6,0,2.9-0.4,3.8-1.3C-140.8,303.3-140.3,302.1-140.3,300.6z"/>
		<path d="M-124.7,290.3v1.2c1.3-1.9,3.2-2.8,5.5-2.8c2.4,0,4.3,0.8,5.7,2.5s2.1,3.9,2.1,6.7c0,3-0.8,5.5-2.2,7.3
			c-1.5,1.8-3.5,2.7-6,2.7c-2.1,0-3.8-0.7-5.1-2.2v3c0,0.9,0,1.5,0.1,1.8c0.1,0.7,0.5,1.1,1,1.1c0.2,0,0.4,0,0.8-0.1
			s0.6-0.1,0.8-0.1c0.8,0,1.2,0.4,1.2,1.2s-0.5,1.2-1.5,1.2c-0.4,0-0.9,0-1.6-0.1c-0.5-0.1-1.3-0.1-2.4-0.1c-0.6,0-1.1,0-1.4,0.1
			c-1,0.1-1.6,0.2-1.9,0.2c-0.4,0-0.8-0.1-1-0.4c-0.3-0.2-0.4-0.5-0.4-0.9c0-0.8,0.4-1.1,1.2-1.1c0.1,0,0.4,0,0.7,0.1
			c0.4,0.1,0.7,0.1,0.9,0.1c0.5,0,0.7-0.2,0.8-0.7s0.2-1.8,0.2-3.9v-13.9c0-1.1-0.3-1.7-0.9-1.7c-0.2,0-0.4,0-0.8,0.1
			s-0.6,0.1-0.8,0.1c-0.9,0-1.3-0.4-1.3-1.2c0-0.8,0.5-1.2,1.6-1.2c0.3,0,0.6,0,0.9,0c0.6,0,1,0.1,1.3,0.1c0.2,0,0.5,0,0.9-0.1
			s0.7-0.1,0.9-0.1C-125,289.3-124.7,289.7-124.7,290.3z M-124.2,294.7c-0.2,0.9-0.3,2.1-0.4,3.4c0,0.1,0,0.3,0,0.5
			c0,0.2,0,0.4,0,0.5c0,1.6,0.1,2.8,0.4,3.5c0.3,0.7,0.8,1.4,1.6,2c0.8,0.6,1.7,0.9,2.9,0.9c1.7,0,3.1-0.6,4-1.9
			c0.9-1.3,1.4-3.1,1.4-5.4c0-4.8-1.7-7.2-5.1-7.2c-1.2,0-2.2,0.3-3.1,1C-123.4,292.8-123.9,293.7-124.2,294.7z"/>
		<path d="M-101.6,296.8v4.7c0,1.2,0,1.9,0,2.1c0.1,1.1,0.4,1.6,1,1.6c0.1,0,0.4-0.1,0.9-0.2c0.1,0,0.3-0.1,0.5-0.1
			c0.9,0,1.4,0.4,1.4,1.2c0,0.3-0.2,0.6-0.5,0.9c-0.3,0.2-0.7,0.4-1.1,0.4c-0.4,0-1-0.1-1.8-0.2c-0.8-0.1-1.4-0.2-1.8-0.2
			c-0.6,0-1.3,0-2.1,0.1c-0.9,0.1-1.6,0.2-1.9,0.2c-1,0-1.4-0.4-1.4-1.2c0-0.8,0.4-1.2,1.2-1.2c0.2,0,0.5,0,0.9,0.1s0.7,0.1,0.9,0.1
			c0.6,0,0.9-0.8,1.1-2.3c0-0.1,0-1.1,0-3.1v-3c0-2,0-3,0-3.1c-0.1-1.5-0.5-2.3-1.1-2.3c-0.2,0-0.5,0-0.8,0.1s-0.6,0.1-0.8,0.1
			c-0.9,0-1.3-0.4-1.3-1.2c0-0.8,0.5-1.2,1.6-1.2c0.5,0,0.8,0,1,0c0.8,0.1,1.3,0.1,1.5,0.1c0.2,0,0.5,0,0.9-0.1
			c0.4-0.1,0.7-0.1,0.9-0.1c0.7,0,1,0.5,1,1.4c0,0.1,0,0.2,0,0.4c0,0.2,0,0.3,0,0.4c0,0.2,0,0.9-0.1,2.2
			C-101.5,294.8-101.6,295.8-101.6,296.8z M-103.4,287.4c-0.6,0-1-0.2-1.4-0.6c-0.4-0.4-0.6-0.9-0.6-1.4s0.2-1,0.6-1.4
			s0.9-0.6,1.4-0.6s1,0.2,1.4,0.6c0.4,0.4,0.6,0.9,0.6,1.4s-0.2,1-0.6,1.4C-102.4,287.2-102.9,287.4-103.4,287.4z"/>
	</g>
	<path id="_x7B_----------_x7D_" sketch:type="MSShapeGroup" fill="#9B9B9B" d="M-255.1,292.8c0,1.8-0.2,3.1-0.7,4
		c-0.5,0.9-1.3,1.7-2.6,2.3c1.2,0.6,2.1,1.4,2.6,2.4c0.5,1,0.7,2.3,0.7,4v8.7c0,2,0.3,3.3,1,3.9c0.7,0.6,2.1,0.9,4.2,0.9v3.4h-1.6
		c-2.7,0-4.7-0.6-5.8-1.8c-1.2-1.2-1.7-3.2-1.7-6.1v-8.9c0-1.5-0.2-2.7-0.7-3.5c-0.5-0.8-1.3-1.3-2.4-1.6v-3.2
		c2.1-0.6,3.1-2.2,3.1-4.8v-9.5c0-2.6,0.6-4.5,1.8-5.7c1.2-1.2,3.1-1.7,5.8-1.7h1.5v3.4c-2.1,0-3.5,0.4-4.2,1c-0.7,0.6-1,1.9-1,3.7
		V292.8z M-84.9,305.3c0-1.7,0.2-3,0.7-3.9c0.5-0.9,1.3-1.7,2.6-2.4c-1.2-0.6-2.1-1.4-2.6-2.4c-0.5-1-0.7-2.3-0.7-4v-8.7
		c0-2-0.3-3.3-1-3.9c-0.7-0.6-2.1-0.9-4.2-0.9v-3.4h1.5c2.7,0,4.7,0.6,5.9,1.8c1.2,1.2,1.8,3.2,1.8,6.1v8.9c0,2.8,1,4.5,3.1,5v3.2
		c-2.1,0.6-3.1,2.2-3.1,4.8v9.5c0,2.6-0.6,4.5-1.8,5.7s-3.1,1.7-5.8,1.7h-1.5V319c2.1,0,3.5-0.4,4.2-1c0.7-0.6,1-1.9,1-3.7V305.3z"
		/>
</g>
</svg>
