<?xml version="1.0" encoding="UTF-8" standalone="no"?>
<svg width="251px" height="79px" viewBox="0 0 251 79" version="1.1" xmlns="http://www.w3.org/2000/svg" xmlns:xlink="http://www.w3.org/1999/xlink" xmlns:sketch="http://www.bohemiancoding.com/sketch/ns">
    <!-- Generator: Sketch 3.1.1 (8761) - http://www.bohemiancoding.com/sketch -->
    <title>jsonapi</title>
    <desc>Created with Sketch.</desc>
    <defs></defs>
    <g id="Page-1" stroke="none" stroke-width="1" fill="none" fill-rule="evenodd" sketch:type="MSPage">
        <rect id="Rectangle-1" fill="#FFFFFF" sketch:type="MSShapeGroup" x="0" y="0" width="251" height="79"></rect>
        <text id="json:api" sketch:type="MSTextLayer" font-family="American Typewriter" font-size="36" font-weight="normal" letter-spacing="1.25">
            <tspan x="55" y="49" fill="#000000">json</tspan>
            <tspan x="130.776" y="49" fill="#9B9B9B">:</tspan>
            <tspan x="141.854" y="49" fill="#000000">api</tspan>
        </text>
        <path d="M39.85,34.506 C39.85,36.2700088 39.6160023,37.5929956 39.148,38.475 C38.6799977,39.3570044 37.8160063,40.1399966 36.556,40.824 C37.7800061,41.4720032 38.6349976,42.2729952 39.121,43.227 C39.6070024,44.1810048 39.85,45.5039915 39.85,47.196 L39.85,55.89 C39.85,57.8700099 40.1919966,59.1749968 40.876,59.805 C41.5600034,60.4350032 42.9459896,60.75 45.034,60.75 L45.034,64.152 L43.468,64.152 C40.7319863,64.152 38.7880058,63.549006 37.636,62.343 C36.4839942,61.136994 35.908,59.0940144 35.908,56.214 L35.908,47.304 C35.908,45.7559923 35.6740023,44.6040038 35.206,43.848 C34.7379977,43.0919962 33.9460056,42.5700014 32.83,42.282 L32.83,39.096 C34.8820103,38.5199971 35.908,36.9180131 35.908,34.29 L35.908,24.786 C35.908,22.1579869 36.510994,20.2680058 37.717,19.116 C38.923006,17.9639942 40.8579867,17.388 43.522,17.388 L45.034,17.388 L45.034,20.79 C42.9459896,20.8260002 41.5600034,21.1499969 40.876,21.762 C40.1919966,22.3740031 39.85,23.6159906 39.85,25.488 L39.85,34.506 Z M210.094003,47.034 C210.094003,45.3059914 210.328,43.9920045 210.796003,43.092 C211.264005,42.1919955 212.127996,41.4000034 213.388003,40.716 C212.163996,40.0679968 211.309005,39.2670048 210.823003,38.313 C210.337,37.3589952 210.094003,36.0360085 210.094003,34.344 L210.094003,25.65 C210.094003,23.6699901 209.752006,22.3650031 209.068003,21.735 C208.383999,21.1049968 206.998013,20.79 204.910003,20.79 L204.910003,17.388 L206.422003,17.388 C209.158016,17.388 211.110997,17.990994 212.281003,19.197 C213.451008,20.403006 214.036003,22.4459856 214.036003,25.326 L214.036003,34.236 C214.036003,37.0800142 215.061992,38.7539975 217.114003,39.258 L217.114003,42.444 C215.061992,43.0200029 214.036003,44.6219869 214.036003,47.25 L214.036003,56.754 C214.036003,59.3820131 213.442008,61.2719942 212.254003,62.424 C211.065997,63.5760058 209.122016,64.152 206.422003,64.152 L204.910003,64.152 L204.910003,60.75 C206.998013,60.7139998 208.383999,60.3900031 209.068003,59.778 C209.752006,59.1659969 210.094003,57.9240094 210.094003,56.052 L210.094003,47.034 Z" id="{----------}" fill="#9B9B9B" sketch:type="MSShapeGroup"></path>
    </g>
</svg>