<?xml version="1.0" encoding="utf-8"?>
<!-- Generator: Adobe Illustrator 18.1.0, SVG Export Plug-In . SVG Version: 6.00 Build 0)  -->
<!DOCTYPE svg PUBLIC "-//W3C//DTD SVG 1.1//EN" "http://www.w3.org/Graphics/SVG/1.1/DTD/svg11.dtd">
<svg version="1.1" xmlns="http://www.w3.org/2000/svg" xmlns:xlink="http://www.w3.org/1999/xlink" x="0px" y="0px"
	 viewBox="0 0 1280 800" enable-background="new 0 0 1280 800" xml:space="preserve">
<g id="Layer_1" display="none">
	<g display="inline">
		<g>
			<path d="M363.6,295.6c34-9.8,68.5-17.9,103.3-24.4c-0.5-1.9-1.1-3.9-1.6-5.8c-1.7,0.4-2.2,0.6-3.7,1.5c-3.3,2-0.3,7.2,3,5.2
				c0.8-0.3,1.5-0.6,2.3-0.9c3.8-0.9,2.2-6.5-1.6-5.8c-34.8,6.5-69.3,14.6-103.3,24.4C358.3,290.8,359.9,296.6,363.6,295.6
				L363.6,295.6z"/>
		</g>
	</g>
	<g display="inline">
		<g>
			<path d="M358.3,295.2c2,2.2,2.8,6.8,3.8,9.5c1.2,3.3,2.4,6.6,3.5,9.9c2.2,6.3,4.3,12.6,6.4,19c4.2,13,8.1,26.2,11.7,39.4
				c1,3.7,6.8,2.1,5.8-1.6c-3.9-14.1-8-28.2-12.6-42.1c-2.2-6.7-4.4-13.3-6.8-19.9c-1.3-3.6-2.6-7.2-3.9-10.8
				c-1-2.8-1.7-5.5-3.7-7.7C359.9,288.2,355.6,292.4,358.3,295.2L358.3,295.2z"/>
		</g>
	</g>
	<g display="inline">
		<g>
			<path d="M461.9,270.4c7.9,29.7,17.2,59,27.8,87.9c1.3,3.6,7.1,2,5.8-1.6c-10.6-28.9-19.8-58.2-27.8-87.9
				C466.7,265.1,460.9,266.7,461.9,270.4L461.9,270.4z"/>
		</g>
	</g>
	<g display="inline">
		<g>
			<path d="M389.2,378.6c33.1-9.1,66.9-15,101.1-17.6c3.8-0.3,3.9-6.3,0-6c-34.7,2.6-69.1,8.5-102.7,17.8
				C383.9,373.9,385.4,379.7,389.2,378.6L389.2,378.6z"/>
		</g>
	</g>
	<g display="inline">
		<g>
			<path d="M805.6,418.3c-1.6,23.7-2.2,47.4-1.8,71.1c0.1,3.9,6.1,3.9,6,0c-0.4-23.7,0.2-47.4,1.8-71.1
				C811.9,414.4,805.9,414.5,805.6,418.3L805.6,418.3z"/>
		</g>
	</g>
	<g display="inline">
		<g>
			<path d="M808.2,493.7c41.4-1.6,82.8-2.3,124.2-2.1c3.9,0,3.9-6,0-6c-41.4-0.1-82.8,0.6-124.2,2.1
				C804.3,487.9,804.3,493.9,808.2,493.7L808.2,493.7z"/>
		</g>
	</g>
	<g display="inline">
		<g>
			<path d="M937.3,419.9c0.1,0,0.2,0,0.3-0.1c1.3-0.2,2.2-1.7,2.2-2.9c0-1.6-0.6-2.5-1.9-3.4c-1.2-0.8-2.7-0.4-3.6,0.5
				c-3.2,2.7-2.2,9.7-2.6,13.5c-0.6,6.6-1.1,13.2-1.7,19.8c-1.1,13.2-2.2,26.3-3.4,39.5c-0.3,3.3,5.4,4.2,5.9,0.8
				c0.4-2.5,0-4-1.6-5.9c-2.5-3-6.7,1.3-4.2,4.2c0,0,0,0.1,0.1,0.1c2,0.3,3.9,0.5,5.9,0.8c1-11.5,2-23.1,2.9-34.6
				c0.5-5.6,1-11.2,1.4-16.8c0.2-2.6,0.4-5.3,0.7-7.9c0.1-1.3-0.2-8.4,0.8-9.2c-1.2,0.2-2.4,0.3-3.6,0.5c0.1,0.1,0.3,0.2,0.4,0.3
				c-0.5-0.9-1-1.7-1.5-2.6c0,0.2,0,0.3,0,0.5c0.7-1,1.5-1.9,2.2-2.9c-0.1,0-0.2,0-0.3,0.1C931.9,414.8,933.5,420.6,937.3,419.9
				L937.3,419.9z"/>
		</g>
	</g>
	<g display="inline">
		<g>
			<path d="M808.1,417.4c41.9-2.9,83.9-2.5,125.7,1.1c2.6,0.2,4-3.5,2.1-5.1c-1.2-1-2.3-2.1-3.5-3.1c-2.9-2.5-7.1,1.7-4.2,4.2
				c1.2,1,2.3,2.1,3.5,3.1c0.7-1.7,1.4-3.4,2.1-5.1c-41.8-3.6-83.8-4-125.7-1.1C804.3,411.7,804.3,417.7,808.1,417.4L808.1,417.4z"
				/>
		</g>
	</g>
	<g display="inline">
		<g>
			<path d="M748.6,110.3c-1.1,24.8,0.5,49.6,4.8,74c0.7,3.8,6.4,2.2,5.8-1.6c-4.2-23.9-5.6-48.2-4.5-72.5
				C754.7,106.5,748.7,106.5,748.6,110.3L748.6,110.3z"/>
		</g>
	</g>
	<g display="inline">
		<g>
			<path d="M851.3,103.9c1,13.7,2.1,27.4,3.1,41.1c0.5,6.5,1,13.1,1.5,19.6c0.3,4-0.6,10.5,3.4,12.9c1.2,0.7,2.6,0.4,3.6-0.5
				c1.6-1.4,1.5-3.4,0.6-5.1c-1-1.8-3.3-1.8-4.7-0.6c-0.1,0.1-0.2,0.2-0.3,0.2c-3,2.4,1.3,6.7,4.2,4.2c0.1-0.1,0.2-0.2,0.3-0.2
				c-1.6-0.2-3.1-0.4-4.7-0.6c0.1-0.7,0.3-1.4,0.4-2.2c1.2-0.2,2.4-0.3,3.6-0.5c0.9,0.5,0.1-1.1,0.1-1.9c-0.1-1.6-0.2-3.3-0.4-4.9
				c-0.2-2.9-0.4-5.9-0.7-8.8c-0.4-5.9-0.9-11.7-1.3-17.6c-0.9-11.7-1.8-23.5-2.7-35.2C857,100.1,851,100,851.3,103.9L851.3,103.9z"
				/>
		</g>
	</g>
	<g display="inline">
		<g>
			<path d="M753.7,185c20.1,7.5,41.6,11.4,63.1,10.9c9.7-0.2,19.8-1,29.2-3.3c7.5-1.9,14-5.9,17.3-13.1c0.7-1.5,0.4-3.2-1.1-4.1
				c-0.8-0.5-1.6-0.9-2.4-1.4c-3.4-1.9-6.4,3.3-3,5.2c0.8,0.5,1.6,0.9,2.4,1.4c-0.4-1.4-0.7-2.7-1.1-4.1
				c-3.3,7.3-10.1,9.7-17.5,11.1c-9.6,1.8-19.5,2.5-29.3,2.4c-19.2-0.2-38-4-56-10.8C751.7,177.9,750.1,183.7,753.7,185L753.7,185z"
				/>
		</g>
	</g>
	<g display="inline">
		<g>
			<path d="M750.5,112.8c18.8,7,38.6,14.5,59,13.4c17.1-1,33.1-8.2,44.4-21.2c2.5-2.9-1.7-7.2-4.2-4.2c-11,12.6-26.4,19.3-43.1,19.5
				c-18.9,0.3-37.1-6.7-54.5-13.3C748.4,105.7,746.9,111.5,750.5,112.8L750.5,112.8z"/>
		</g>
	</g>
	<g display="inline">
		<g>
			<path d="M753.1,109.2c27.8-17.3,69.2-24,97.4-3.5c0.5-1.9,1-3.7,1.5-5.6c-1,0-2-0.1-3-0.1c-3.9-0.1-3.9,5.9,0,6c1,0,2,0.1,3,0.1
				c3.2,0.1,3.8-4,1.5-5.6C839,90,819.7,86.7,802.2,87.5c-18.6,0.8-36.4,6.8-52.1,16.6C746.8,106.1,749.8,111.3,753.1,109.2
				L753.1,109.2z"/>
		</g>
	</g>
	<g display="inline">
		<g>
			<path d="M731.5,163.8c-62.9,29.9-124,63.7-182.8,101.1c-16.8,10.7-33.4,21.7-49.8,32.9c-3.2,2.2-0.2,7.4,3,5.2
				c57.4-39.4,117.3-75.3,179.1-107.4c17.7-9.2,35.5-18,53.5-26.6C738,167.3,735,162.2,731.5,163.8L731.5,163.8z"/>
		</g>
	</g>
	<g display="inline">
		<g>
			<path d="M720.8,165.2c1.8,0.5,3.6,1,5.4,1.5c1,0.3,2,0.6,3,0.9c0.4,0.1,0.8,0.2,1.2,0.3c1.3,0.2,1.6,0.3,0.8,0.4
				c0-0.2-0.7,1.6-0.7,1.9c-0.2,1-0.5,2-0.7,3c-0.5,2-1.2,3.9-1.9,5.8c1.8-0.2,3.7-0.5,5.5-0.7c-4.1-5.4-7.6-11.1-10.3-17.3
				c-1.7,1-3.5,2-5.2,3c2.6,4.1,5.1,8.1,7.7,12.2c1.5,2.4,5.8,1.6,5.6-1.5c-0.2-3.1-1-5.8-2.4-8.5c-1.5-2.8-5.3-1.2-5.6,1.5
				c-0.2,2.4,0.3,4.5,1.7,6.4c1.4,2,4.8,1.9,5.5-0.7c0.8-3,0.4-5.9-1.4-8.5c-2.2-3.1-7.3-0.3-5.2,3c1.1,1.8,1.8,3.5,1.9,5.6
				c0.3,3.9,5.6,3.8,6,0c0.1-0.9,0.2-1.7,0.2-2.6c-0.3,0.7-0.6,1.4-0.9,2.1c0.2-0.7,0.4-1.4,0.5-2.1c-0.7-3.8-6.5-2.2-5.8,1.6
				c1,5.2,9.7,4.7,9.3-0.9c-0.2-2.4-2.4-4.2-4.7-4.3c-3.9-0.1-4.4,3.1-4.7,6.2c2,0,4,0,6,0c-0.2-3.1-1-6-2.8-8.6c-1.7,1-3.5,2-5.2,3
				c0.9,1.3,1.2,2.3,0.8,3.9c1.8-0.2,3.7-0.5,5.5-0.7c-0.8-1.1-1-2-0.9-3.4c-1.9,0.5-3.7,1-5.6,1.5c0.9,1.8,1.4,3.5,1.6,5.5
				c1.9-0.5,3.7-1,5.6-1.5c-2.6-4.1-5.1-8.1-7.7-12.2c-2.1-3.3-6.7-0.4-5.2,3c2.7,6.2,6.1,12,10.3,17.3c1.6,2.1,4.5,1.9,5.5-0.7
				c1-2.7,1.8-5.4,2.5-8.1c0.5-2.2,1.6-5.2,0.4-7.4c-1.1-2-3.1-2.5-5.2-3c-3-0.9-6-1.7-9-2.6C718.6,158.4,717.1,164.2,720.8,165.2
				L720.8,165.2z"/>
		</g>
	</g>
	<g display="inline">
		<g>
			<path d="M569.6,210.3c-4.7-4.5-13.1-8.8-17.4-1.2c-3.8,6.7-2.1,16.1,2.3,22.1c4.1,5.6,11.6,9.8,18.7,8.8c9-1.2,9.1-9.5,6-16.2
				c-0.4-0.9-1.6-1.6-2.6-1.5c-3.4,0.4-6,1.5-8.6,3.8c-2.8,2.6,1.4,6.9,4.2,4.2c1.2-1.3,2.6-2,4.4-2.1c-0.9-0.5-1.7-1-2.6-1.5
				c5.5,11.9-10.5,6.2-14.5,1c-2.2-2.9-3.4-6.5-3.3-10.1c0.1-2.3,0.1-4.1,2-5.6c2.8-2.2,4.9,0.3,7.1,2.5
				C568.2,217.2,572.4,213,569.6,210.3L569.6,210.3z"/>
		</g>
	</g>
	<g display="inline">
		<g>
			<path d="M571,202.6c3.2,3.7,6.3,7.6,9.2,11.6c1.4,1.9,2.7,3.8,4,5.7c1,1.4,3.3,3.9,3.5,5.6c1-1.3,1.9-2.5,2.9-3.8
				c-0.1,0-0.1,0-0.2,0c1,1,2,2,3,3c0-0.1,0-0.1,0-0.2c0.3-3.9-5.7-3.8-6,0c0,0.1,0,0.1,0,0.2c-0.1,1.8,1.5,2.8,3,3
				c0.1,0,0.1,0,0.2,0c2.2,0.3,3.1-2.1,2.9-3.8c-0.3-2-2.1-3.9-3.2-5.6c-1.6-2.4-3.2-4.8-4.9-7.1c-3.2-4.4-6.6-8.7-10.1-12.8
				C572.7,195.4,568.5,199.7,571,202.6L571,202.6z"/>
		</g>
	</g>
	<g display="inline">
		<g>
			<path d="M591.3,228.8c2.7-0.5,4.8-3.2,6.7-5c2.4-2.2,4.8-4.4,7.7-5.9c2.7-1.4,1.4-5.5-1.5-5.6c-0.2,0-0.3,0-0.5,0
				c-3.9-0.1-3.9,5.9,0,6c0.2,0,0.3,0,0.5,0c-0.5-1.9-1-3.7-1.5-5.6c-2.5,1.4-4.8,3.1-6.9,5c-1,0.9-2,1.9-3,2.8
				c-0.8,0.8-2,2.3-3.1,2.5C585.9,223.6,587.5,229.4,591.3,228.8L591.3,228.8z"/>
		</g>
	</g>
	<g display="inline">
		<g>
			<path d="M575.5,201c2.6-2.2,5.4-3.9,8.5-5.3c1.5-0.7,1.8-2.8,1.1-4.1c-0.9-1.5-2.6-1.7-4.1-1.1c-3.5,1.6-6.7,3.7-9.7,6.2
				C568.3,199.2,572.6,203.4,575.5,201L575.5,201z"/>
		</g>
	</g>
	<g display="inline">
		<g>
			<path d="M585.9,214.1c1.4-1.1,2.9-2.3,4.3-3.4c1.2-1,1.1-3.2,0-4.2c-1.3-1.2-2.9-1.1-4.2,0c-1.4,1.1-2.9,2.3-4.3,3.4
				c-1.2,1-1.1,3.2,0,4.2C582.9,215.3,584.5,215.2,585.9,214.1L585.9,214.1z"/>
		</g>
	</g>
	<g display="inline">
		<g>
			<path d="M596.3,185c7.8,6.5,14.9,13.8,21,21.9c2.3,3.1,7.5,0.1,5.2-3c-6.4-8.6-13.7-16.3-21.9-23.1
				C597.6,178.3,593.3,182.5,596.3,185L596.3,185z"/>
		</g>
	</g>
	<g display="inline">
		<g>
			<path d="M591.7,190.1c5-4.8,11.2-8,16-13.1c2.6-2.8-1.6-7.1-4.2-4.2c-4.8,5.1-11,8.3-16,13.1
				C584.7,188.5,588.9,192.8,591.7,190.1L591.7,190.1z"/>
		</g>
	</g>
	<g display="inline">
		<g>
			<path d="M842,210c1.8,30.8,7.1,60.8,13.4,91c6.4,30.6,13.1,61.2,15.2,92.4c0.3,3.8,6.3,3.9,6,0c-2.1-30.5-8.4-60.4-14.7-90.3
				c-6.5-30.9-12.1-61.6-13.9-93.1C847.8,206.1,841.8,206.1,842,210L842,210z"/>
		</g>
	</g>
	<g display="inline">
		<g>
			<path d="M840.5,207.1c-3.8,3.1-6.7,7-8.7,11.4c-0.9,2.1,0.2,4.4,2.6,4.5c6.4,0.3,12.6-0.2,18.9-1.1c1.9-0.3,2.7-2.9,1.8-4.4
				c-1.6-2.6-3.4-5.2-5.3-7.5c-1.3-1.6-2.8-3.9-4.9-4.4c-4.7-1.1-9.7,4.9-12,8c-2.2,2.9,2.3,5.7,4.7,3.6c1.2-1.1,2.5-1.9,3.9-2.7
				c-1.5-0.9-3-1.7-4.5-2.6c-0.1,1.7-0.5,3.2-1.3,4.8c-1.8,3.4,3,6.2,5.2,3c0.9-1.4,1.5-2.8,1.8-4.5c0.5-3.2-3.6-5.4-5.5-2.3
				c-0.6,1-1.2,2-1.9,3c-1.5,2.4,1.6,6,4.1,4.1c1.4-1.1,2.9-2.1,4.3-3.2c-1.4-1.4-2.7-2.7-4.1-4.1c-0.5,0.9-1,1.9-1.4,2.8
				c-1.6,3.2,2.1,5.7,4.7,3.6c1-0.8,2-1.6,3-2.4c-1.7-1-3.3-1.9-5-2.9c0,0.9-0.3,1.7-0.8,2.4c-1.5,2.9,2.3,6.3,4.7,3.6
				c1-1.1,1.8-2.2,2.6-3.5c-1.8-0.2-3.7-0.5-5.5-0.7c1.1,3.4,3.6,5.3,7.2,5.5c2.7,0.1,3.8-3.3,2.1-5.1c-1.5-1.6-3-3-4.6-4.4
				c-1.2,1.6-2.4,3.1-3.6,4.7c1.8,0.9,3.6,1.9,5.2,3.2c3,2.3,7.2-1.6,4.2-4.2c-2.5-2.3-7.8-9.4-11.5-5.3c-3.3,3.7,1,7,4.5,7.2
				c1.6,0.1,3.1-1.5,3-3c-0.2-3-1.6-4.7-4.2-5.8c-1.2-0.5-2.8,0.3-3.4,1.4c-0.8,1.4-1,2.8-0.4,4.4c1.4,3.6,7.2,2,5.8-1.6
				c-0.1,0.1-0.1,0.2-0.2,0.2c-1.1,0.5-2.3,0.9-3.4,1.4c-0.1,0-0.1,0-0.2,0c1-1,2-2,3-3c-0.3-0.1-0.6-0.2-0.8-0.3
				c0.5,0.6,0.9,1.2,1.4,1.8c0,0.2-0.1,0.4-0.1,0.6c-0.6,0.5-1.2,0.9-1.8,1.4c0.2,0,0.4-0.1,0.5-0.1c-0.8-0.1-1.5-0.2-2.3-0.3
				c2.1,1.3,4,3.5,5.9,5.2c1.4-1.4,2.8-2.8,4.2-4.2c-2-1.6-4.1-3-6.4-4.1c-2.9-1.4-6.4,2.4-3.6,4.7c1.6,1.4,3.2,2.8,4.6,4.4
				c0.7-1.7,1.4-3.4,2.1-5.1c-0.5-0.4-0.9-0.7-1.4-1.1c-0.8-2.5-4.1-2.9-5.5-0.7c-0.5,0.8-1,1.6-1.7,2.3c1.6,1.2,3.1,2.4,4.7,3.6
				c0.7-1.3,1.1-2.4,1.4-3.9c0.5-3.1-2.6-4.8-5-2.9c-1,0.8-2,1.6-3,2.4c1.6,1.2,3.1,2.4,4.7,3.6c0.5-0.9,1-1.9,1.4-2.8
				c1.2-2.4-1.5-6-4.1-4.1c-1.4,1.1-2.9,2.1-4.3,3.2c1.4,1.4,2.7,2.7,4.1,4.1c0.6-1,1.2-2,1.9-3c-1.8-0.8-3.7-1.5-5.5-2.3
				c-0.2,1.2-0.5,2-1.1,3c1.7,1,3.5,2,5.2,3c1.3-2.5,2-5,2.1-7.8c0.1-2.3-2.6-3.7-4.5-2.6c-1.8,1-3.5,2.2-5.1,3.6
				c1.6,1.2,3.1,2.4,4.7,3.6c1.1-1.5,2.5-2.9,4-4c0.7-0.5,1.3-0.9,2-1.2c-1.2-0.2-1.3,0.1-0.1,0.9c0.7,1.4,2.4,2.8,3.3,4.1
				c0.9,1.3,1.8,2.7,2.6,4.1c0.6-1.5,1.2-2.9,1.8-4.4c-5.8,0.9-11.5,1.2-17.4,0.9c0.9,1.5,1.7,3,2.6,4.5c1.8-4,4.4-7.4,7.8-10.2
				C847.7,208.9,843.5,204.7,840.5,207.1L840.5,207.1z"/>
		</g>
	</g>
	<g display="inline">
		<g>
			<path d="M877.1,297c0.3,11.8,0.6,23.7,0.8,35.5c0.1,3.9,6.1,3.9,6,0c-0.3-11.8-0.6-23.7-0.8-35.5C883,293.1,877,293.1,877.1,297
				L877.1,297z"/>
		</g>
	</g>
	<g display="inline">
		<g>
			<path d="M881.4,298.8c3.5-2.2,8.3-1,10.6,2.4c1.5,2.3,0.8,4.3-1.8,5.2c-1.2,0.5-2.6,0.4-3.9,0.3c-0.8-0.1-1.6-0.2-2.4-0.4
				c-1.5-0.6-1.8,0.1-0.8,2.1c2.2-3.2-3-6.2-5.2-3c-3.9,5.6,5.6,7.1,8.9,7.3c5.1,0.2,10.7-2.2,11.9-7.6c1-4.7-2.6-9.5-6.6-11.7
				c-4.3-2.4-9.6-2.6-13.8,0.1C875.1,295.7,878.1,300.9,881.4,298.8L881.4,298.8z"/>
		</g>
	</g>
	<g display="inline">
		<g>
			<path d="M901.8,295.6c-0.4,10.2-1.4,20.6-1.1,30.7c0.2,6.3,3.9,11.4,10.7,11.1c17.2-0.6,13.4-28.5,13.6-39.3c0.1-3.9-5.9-3.9-6,0
				c-0.1,6.1-0.2,12.1-0.3,18.2c-0.1,4.9-0.5,13.7-6.8,15c-7.5,1.5-5-12.3-4.8-16.4c0.2-6.5,0.5-12.9,0.7-19.4
				C908,291.8,902,291.8,901.8,295.6L901.8,295.6z"/>
		</g>
	</g>
	<g display="inline">
		<g>
			<path d="M935.6,300c-1.7,11.4-3.1,22.8-4.1,34.2c2,0,4,0,6,0c0-0.4,0-0.8-0.1-1.2c-0.2-3.8-6.2-3.9-6,0c0,0.4,0,0.8,0.1,1.2
				c0.2,3.9,5.7,3.8,6,0c0.9-10.9,2.2-21.8,3.9-32.6C941.9,297.8,936.1,296.1,935.6,300L935.6,300z"/>
		</g>
	</g>
	<g display="inline">
		<g>
			<path d="M928.7,301.4c7.1,1.5,14.1,3.2,21.1,5.1c3.7,1,5.3-4.8,1.6-5.8c-7-1.9-14-3.6-21.1-5.1
				C926.6,294.8,925,300.6,928.7,301.4L928.7,301.4z"/>
		</g>
	</g>
	<g display="inline">
		<g>
			<path d="M802.7,211.2c5.9,59.7,0.8,121.6,21.2,179.1c1.3,3.6,7.1,2.1,5.8-1.6c-20.2-57-15.1-118.3-21-177.5
				C808.4,207.4,802.4,207.4,802.7,211.2L802.7,211.2z"/>
		</g>
	</g>
	<g display="inline">
		<g>
			<path d="M813.6,388.5c4.1,1.6,8,3.5,11.9,5.6c1.4,0.8,3.3,0.3,4.1-1.1c2.2-3.8,4.7-7.4,7.3-10.8c1.4-1.8-0.5-4.6-2.6-4.5
				c-5.7,0.3-11.1,1.6-16.4,3.9c-2.5,1.1-1.5,4.8,0.7,5.5c3,0.9,5.8,1,8.8,0.3c-0.8-1.8-1.5-3.7-2.3-5.5c-1.7,1-3.5,2-5.2,3
				c-3.4,2-0.4,6.8,3,5.2c2.4-1.2,4.7-2.4,6.9-3.9c3.2-2.1,0.2-7.3-3-5.2c-2.2,1.4-4.5,2.7-6.9,3.9c1,1.7,2,3.5,3,5.2
				c1.7-1,3.5-2,5.2-3c3-1.8,1-6.2-2.3-5.5c-2,0.4-3.7,0.3-5.6-0.3c0.2,1.8,0.5,3.7,0.7,5.5c4.3-1.8,8.7-2.8,13.3-3
				c-0.9-1.5-1.7-3-2.6-4.5c-2.6,3.5-5.1,7.1-7.3,10.8c1.4-0.4,2.7-0.7,4.1-1.1c-4.3-2.4-8.7-4.4-13.3-6.3
				C811.7,381.3,810.1,387.1,813.6,388.5L813.6,388.5z"/>
		</g>
	</g>
	<g display="inline">
		<g>
			<path d="M674.9,257c-0.4,11.7-0.8,23.4-1.1,35.2c-0.1,2.9,4.2,4.1,5.6,1.5c0.2-0.4,0.4-0.8,0.6-1.2c1.8-3.4-3.3-6.4-5.2-3
				c-0.2,0.4-0.4,0.8-0.6,1.2c1.9,0.5,3.7,1,5.6,1.5c0.4-11.7,0.8-23.4,1.1-35.2C681,253.2,675,253.2,674.9,257L674.9,257z"/>
		</g>
	</g>
	<g display="inline">
		<g>
			<path d="M677.7,258.4c3.5-0.6,11-1.2,11.9,3.8c1,5.6-6.9,5.7-10.4,5.2c-3.8-0.5-5.4,5.2-1.6,5.8c7.6,1.1,18.7-0.8,18-10.9
				c-0.7-9.8-12-11-19.5-9.6C672.4,253.3,674,259.1,677.7,258.4L677.7,258.4z"/>
		</g>
	</g>
	<g display="inline">
		<g>
			<path d="M695.1,293.8c2.2-4.8,4.3-9.8,6.1-14.8c1.8-5,2.8-10.3,4.6-15.3c0.4-1,1.1-3.1,2-3.7c2.4-1.4,2.5,1.3,3.1,2.8
				c0.9,2.6,1.8,5.3,2.5,8c1.7,6.3,3,12.8,3.7,19.3c0.4,3.8,6.4,3.8,6,0c-1-8.3-2.5-16.5-5-24.4c-1.4-4.6-3.2-13.9-10-12.6
				c-6,1.2-8,8.1-9.4,13.2c-2.3,8.4-5.2,16.6-8.9,24.5C688.3,294.3,693.5,297.3,695.1,293.8L695.1,293.8z"/>
		</g>
	</g>
	<g display="inline">
		<g>
			<path d="M700,273.5c5.4,0.3,10.8-0.2,16.1-1.6c3.7-0.9,2.2-6.7-1.6-5.8c-4.8,1.2-9.6,1.6-14.5,1.3
				C696.1,267.2,696.1,273.2,700,273.5L700,273.5z"/>
		</g>
	</g>
	<g display="inline">
		<g>
			<path d="M731.1,255.9c0.2,11.5,1.3,23.4-0.6,34.9c2,0.3,3.9,0.5,5.9,0.8c0-0.3,0-0.7,0-1c0.1-3.9-5.9-3.9-6,0c0,0.3,0,0.7,0,1
				c-0.1,3.3,5.3,4.2,5.9,0.8c1.9-12,1.1-24.3,0.8-36.5C737,252.1,731,252,731.1,255.9L731.1,255.9z"/>
		</g>
	</g>
	<g display="inline">
		<g>
			<path d="M721.1,252.9c-0.4,0-0.8,0-1.2,0.1c-3.9,0.2-3.9,5.8,0,6c7.3,0.4,14.7,0.5,22,0.3c3.9-0.1,3.9-6.1,0-6
				c-7.3,0.2-14.7,0.1-22-0.3c0,2,0,4,0,6c0.4,0,0.8,0,1.2-0.1C724.9,258.8,724.9,252.8,721.1,252.9L721.1,252.9z"/>
		</g>
	</g>
	<g display="inline">
		<g>
			<path d="M764.3,261.4c3.3-5.5-6.1-10.6-10.6-8.6c-8.6,3.7-9.1,14.2-9.1,22.1c0,6.7-1.4,17.9,7,20.2c6.2,1.7,16.1-1.8,13.2-9.8
				c-1.3-3.6-7.1-2-5.8,1.6c-0.9,2-2.2,2.9-3.9,2.7c-1.5,0.1-2.8-0.6-3.8-2c-0.6-1-0.4-3-0.5-4.1c-0.2-3.5-0.2-6.9-0.2-10.4
				c0-3-0.1-6.3,0.9-9.1c1.2-3.2,5.5-8.5,7.9-3c0-1,0-2,0-3c-0.1,0.2-0.2,0.4-0.3,0.5C757.2,261.7,762.4,264.7,764.3,261.4
				L764.3,261.4z"/>
		</g>
	</g>
	<g display="inline">
		<g>
			<path d="M767.7,255.9c0,12.1,0,24.2,0,36.4c0,3.9,6,3.9,6,0c0-12.1,0-24.2,0-36.4C773.7,252.1,767.7,252.1,767.7,255.9
				L767.7,255.9z"/>
		</g>
	</g>
	<g display="inline">
		<g>
			<path d="M785,257.3c0.3,5.9,0.6,11.8,0.6,17.8c0,2.6,0,5.3,0,7.9c0,0.9,0.5,8.2,0.1,8.5c1.4,0,2.8,0,4.2,0
				c-0.1-0.1-0.2-0.2-0.3-0.3c0,1.4,0,2.8,0,4.2c0.1-0.1,0.1-0.1,0.2-0.2c2.9-2.6-1.3-6.8-4.2-4.2c-0.1,0.1-0.1,0.1-0.2,0.2
				c-1.2,1.1-1.1,3.1,0,4.2c0.1,0.1,0.2,0.2,0.3,0.3c1.2,1.2,3.1,1.1,4.2,0c1.5-1.3,1.3-3.1,1.4-4.9c0.2-3.6,0.2-7.2,0.3-10.9
				c0.1-7.6-0.2-15.1-0.6-22.7C790.8,253.4,784.8,253.4,785,257.3L785,257.3z"/>
		</g>
	</g>
	<g display="inline">
		<g>
			<path d="M771.4,277.3c5.3,0,10.5,0,15.8,0c3.9,0,3.9-6,0-6c-5.3,0-10.5,0-15.8,0C767.6,271.3,767.5,277.3,771.4,277.3
				L771.4,277.3z"/>
		</g>
	</g>
	<g display="inline">
		<g>
			<path d="M505.7,341.2c36.8,12.6,71.3,30.8,106.8,46.5c36,16,73.2,29,110.4,41.9c21.9,7.6,43.8,15.1,65.6,22.7
				c3.7,1.3,5.2-4.5,1.6-5.8c-38.1-13.2-76.4-25.9-114.2-39.8c-37.3-13.6-73-30-109-46.6c-19.5-9-39.3-17.7-59.6-24.6
				C503.6,334.2,502,339.9,505.7,341.2L505.7,341.2z"/>
		</g>
	</g>
	<g display="inline">
		<g>
			<path d="M785.5,441.8c2,3.7,3.3,7.5,3.9,11.7c0.5-1.1,0.9-2.3,1.4-3.4c-3.2,1.8-6.4,3.4-9.8,4.8c1.2,1.2,2.5,2.5,3.7,3.7
				c1.3-5.2,3.3-10,6.3-14.5C789.3,443.3,787.5,442.5,785.5,441.8c-0.6,3.1-1.3,6.3-2.1,9.5c-0.6,2.6,3,5.5,5,2.9
				c1.1-1.4,1.8-2.6,2.4-4.2c-2-0.3-3.9-0.5-5.9-0.8c0.1,1.1-0.1,2.1-0.5,3.1c-1.5,3.5,3.6,6.6,5.2,3c0.9-2,1.4-3.9,1.4-6.1
				c0-3.5-4.8-3.9-5.9-0.8c-0.3,0.5-0.5,1-0.8,1.5c1.7,1,3.3,1.9,5,2.9c0.7-3.2,1.4-6.3,2.1-9.5c0.8-3.4-3.6-5.2-5.5-2.3
				c-3.2,4.9-5.6,10.2-6.9,15.9c-0.5,2,1.4,4.6,3.7,3.7c3.9-1.5,7.6-3.3,11.2-5.4c1.3-0.7,1.6-2.1,1.4-3.4c-0.7-4.6-2.3-9-4.5-13.1
				C788.9,435.4,783.7,438.4,785.5,441.8L785.5,441.8z"/>
		</g>
	</g>
	<g display="inline">
		<g>
			<path d="M635.6,343.9c-4.7,9-9.3,18-14,26.9c-1.8,3.4,3.4,6.5,5.2,3c4.7-9,9.3-18,14-26.9C642.6,343.5,637.4,340.4,635.6,343.9
				L635.6,343.9z"/>
		</g>
	</g>
	<g display="inline">
		<g>
			<path d="M639.2,342.7c5-1.4,8.5,4.5,8.8,8.9c0.2,2.3-1.2,2.7-3.2,3.6c-1.8,0.8-7.4,3-7.8-0.9c-0.4-3.8-6.4-3.8-6,0
				c0.5,4.7,4,8.1,8.8,8.2c4.2,0.1,11.5-2.5,13.5-6.4c2.1-4.1-0.3-10.4-2.7-14c-3-4.4-7.9-6.6-13.1-5.2
				C633.9,337.9,635.4,343.7,639.2,342.7L639.2,342.7z"/>
		</g>
	</g>
	<g display="inline">
		<g>
			<path d="M666.1,346.7c-4.8,2.1-7.8,6.7-10.6,10.9c-3.2,4.8-6.3,10-7,15.8c-1.1,8.5,5.4,17.9,14.5,12.3c4.1-2.5,6.1-7.4,8.4-11.4
				c2.8-4.9,6.6-10.1,7.9-15.7c2.1-8.9-5.3-15.3-13.8-13c-3.7,1-2.1,6.8,1.6,5.8c3.7-1,6.5,0.6,6.5,4.5c0,2.9-2.1,5.8-3.5,8.3
				c-2.6,4.6-4.8,10.3-8.3,14.3c-1.9,2.2-2.6,3-5.2,1.2c-2.5-1.8-2.7-3.3-2.1-6.5c0.5-2.9,1.8-5.6,3.2-8.1
				c2.7-4.8,6.2-11.1,11.4-13.4C672.6,350.3,669.6,345.1,666.1,346.7L666.1,346.7z"/>
		</g>
	</g>
	<g display="inline">
		<g>
			<path d="M698.2,371.9c3.8-5.2,6.2-11.5-0.8-14.9c-5.2-2.5-12-1.7-15.8,2.9c-3.8,4.6-3.3,10.6,0.6,14.9c3.3,3.6,6.7,6.9,3.7,12.1
				c-1,1.7-2.9,3.5-4.9,4.2c-7,2.5-6-3.5-2.7-6.2c3-2.4-1.3-6.7-4.2-4.2c-4.8,3.9-6.5,11.4-1,15.6c5.1,3.9,12.6,0.1,16.3-4.1
				c4.2-4.8,5-12,1.1-17.3c-2.6-3.5-9.3-8.2-3.1-12.3c1.8-1.2,6.7-1.7,8.3,0.3c1.3,1.6-1.7,4.7-2.7,6
				C690.8,371.9,696,374.9,698.2,371.9L698.2,371.9z"/>
		</g>
	</g>
	<g display="inline">
		<g>
			<path d="M710.2,366c-5.3,11.4-10.9,22.6-16.9,33.7c-1.8,3.4,3.4,6.4,5.2,3c5.9-11.1,11.5-22.3,16.9-33.7
				C717,365.5,711.8,362.5,710.2,366L710.2,366z"/>
		</g>
	</g>
	<g display="inline">
		<g>
			<path d="M702.7,365.4c6.7,3,13.2,6.3,19.6,9.9c0.8-1.8,1.5-3.7,2.3-5.5c-0.4-0.1-0.9-0.2-1.3-0.2c-3.8-0.7-5.4,5.1-1.6,5.8
				c0.4,0.1,0.9,0.2,1.3,0.2c3.2,0.6,5.5-3.7,2.3-5.5c-6.4-3.6-12.9-6.9-19.6-9.9C702.2,358.7,699.1,363.9,702.7,365.4L702.7,365.4z
				"/>
		</g>
	</g>
	<g display="inline">
		<g>
			<path d="M792.6,483.7c-33.2-22.5-72.5-32.1-110.6-42.4c-42.8-11.6-83.4-28.5-124.8-44.3c-24-9.2-48.2-17.7-72.6-25.8
				c-3.7-1.2-5.3,4.6-1.6,5.8c42.7,14.1,84.3,30.7,126.3,46.8c20.1,7.8,40.5,14.8,61.3,20.6c19.1,5.3,38.4,10.1,57.4,16.1
				c21.7,6.9,42.8,15.6,61.7,28.4C792.8,491.1,795.8,485.9,792.6,483.7L792.6,483.7z"/>
		</g>
	</g>
	<g display="inline">
		<g>
			<path d="M483.3,376.2c3.7-1.7,7.7-2.9,11.8-3.4c-0.9-1.5-1.7-3-2.6-4.5c-3.7,5.6-7.4,11.1-11.1,16.7c1.7,0,3.5,0,5.2,0
				c-1.9-3.8-3.4-7.7-4.6-11.7c-0.5,1.1-0.9,2.3-1.4,3.4c1.1-0.6,2.1-0.9,3.3-1.2c3.7-0.9,2.2-6.7-1.6-5.8c-1.7,0.4-3.2,1-4.7,1.8
				c-1.2,0.6-1.7,2.2-1.4,3.4c1.3,4.5,3.1,8.9,5.2,13.2c1.1,2.1,4,1.7,5.2,0c3.7-5.6,7.4-11.1,11.1-16.7c1.2-1.8-0.3-4.8-2.6-4.5
				c-5.2,0.6-10.1,2-14.9,4.2C476.7,372.6,479.8,377.8,483.3,376.2L483.3,376.2z"/>
		</g>
	</g>
	<g display="inline">
		<g>
			<path d="M479.4,374.7c-0.3,1.7-0.3,3.3,0.4,4.9c1.1,2.8,4.7,2.9,5.8,0c0.6-1.6,1.2-3.1,1.8-4.7c-2-0.3-3.9-0.5-5.9-0.8
				c0.1,1.8,0.1,3.7,0.2,5.5c0.1,3.1,3.9,4,5.6,1.5c1.2-1.8,2.4-3.5,3.6-5.3c1.9-2.9-2.4-6-4.7-3.6c-1.2,1.3-2,2.6-2.7,4.2
				c-1,2.4,2.4,4.7,4.4,3.4c1.8-1.2,3.2-2.6,4.5-4.2c1-1.3,0.2-3.4-1.1-4.1c-1.5-0.9-3.1-0.2-4.1,1.1c-0.6,0.8-1.5,1.5-2.3,2.1
				c1.5,1.1,2.9,2.3,4.4,3.4c0.3-0.6,0.7-1.1,1.2-1.6c-1.6-1.2-3.1-2.4-4.7-3.6c-1.2,1.8-2.4,3.5-3.6,5.3c1.9,0.5,3.7,1,5.6,1.5
				c-0.1-1.8-0.1-3.7-0.2-5.5c-0.1-3.5-4.7-3.9-5.9-0.8c-0.6,1.6-1.2,3.1-1.8,4.7c1.9,0,3.9,0,5.8,0c-0.2-0.6-0.5-1.1-0.4-1.7
				c0.3-1.6-0.4-3.2-2.1-3.7C481.6,372.2,479.7,373.1,479.4,374.7L479.4,374.7z"/>
		</g>
	</g>
	<g display="inline">
		<g>
			<path d="M568.3,421c-4.4,8.4-9.2,16.5-14.3,24.4c1.8,0.2,3.7,0.5,5.5,0.7c-0.1-0.6-0.2-1.1-0.4-1.7c-0.8-3.8-6.6-2.2-5.8,1.6
				c0.1,0.6,0.2,1.1,0.4,1.7c0.6,2.7,4.2,2.7,5.5,0.7c5.1-7.9,9.9-16.1,14.3-24.4C575.2,420.6,570.1,417.6,568.3,421L568.3,421z"/>
		</g>
	</g>
	<g display="inline">
		<g>
			<path d="M571,426.2c4-1.3,6.1,6.6,7,9c1.3,3.8,2.3,7.7-0.8,10.9c-4.7,5.1-15.7,7.4-19-0.2c-1.5-3.5-6.7-0.5-5.2,3
				c5.4,12.4,24.7,8.7,30.6-1.4c3.4-5.9,0.9-12.6-1.5-18.3c-2.3-5.3-6-11-12.7-8.8C565.7,421.6,567.3,427.4,571,426.2L571,426.2z"/>
		</g>
	</g>
	<g display="inline">
		<g>
			<path d="M595.1,434.4c0.1,0.5-2.6,3.9-3,4.6c-1.3,2.1-2.6,4.2-3.8,6.3c-2.4,4.3-4.6,8.7-6.6,13.1c-0.7,1.7-0.3,3.9,1.8,4.4
				c5,1.1,9.7,2.9,14.3,5.3c1.5,0.8,3.2,0.3,4.1-1.1c0.7-1.1,0.9-2.1,0.4-3.3c-1.3-3.6-7.1-2.1-5.8,1.6c0.1-0.4,0.1-0.9,0.2-1.3
				c1.4-0.4,2.7-0.7,4.1-1.1c-5-2.7-10.2-4.7-15.7-5.9c0.6,1.5,1.2,2.9,1.8,4.4c2.5-5.6,5.3-11.1,8.4-16.3c2.2-3.6,6.7-7.8,5.5-12.3
				C600,429.1,594.2,430.7,595.1,434.4L595.1,434.4z"/>
		</g>
	</g>
	<g display="inline">
		<g>
			<path d="M591.4,448.5c2.6,1,5.2,2.1,7.7,3.3c1.5,0.7,3.2,0.4,4.1-1.1c0.8-1.3,0.4-3.4-1.1-4.1c-3-1.4-6-2.7-9.1-3.9
				c-1.5-0.6-3.3,0.6-3.7,2.1C588.9,446.5,589.9,448,591.4,448.5L591.4,448.5z"/>
		</g>
	</g>
	<g display="inline">
		<g>
			<path d="M596.8,436.1c5.1,2.8,10.5,5.1,16.1,6.6c3.7,1,5.3-4.7,1.6-5.8c-5.1-1.4-10-3.4-14.7-6
				C596.5,429,593.4,434.2,596.8,436.1L596.8,436.1z"/>
		</g>
	</g>
	<g display="inline">
		<g>
			<path d="M617.8,440.3c-4.5,8.9-9.1,17.9-13.6,26.8c-0.9,1.7-0.2,3.9,1.8,4.4c5.8,1.5,11.5,3.5,17,6c3.5,1.6,6.5-3.6,3-5.2
				c-6-2.7-12.1-4.9-18.4-6.6c0.6,1.5,1.2,2.9,1.8,4.4c4.5-8.9,9.1-17.9,13.6-26.8C624.7,439.9,619.5,436.9,617.8,440.3L617.8,440.3
				z"/>
		</g>
	</g>
	<g display="inline">
		<g>
			<path d="M640.2,447.7c-1.4,5.1-3.2,10-5.6,14.6c-1.9,3.7-5.9,7.8-6.9,11.9c-0.7,2.8,1,5.3,3.6,6.3c1.8,0.7,3.8,0.6,5.7,1.1
				c2.7,0.7,5,2,7.3,3.7c3.1,2.3,6.1-2.9,3-5.2c-2.6-1.9-5.5-3.4-8.7-4.3c-0.6-0.2-3.8-0.2-4.2-0.7c-0.4-0.6,1.7-3.3,2.4-4.4
				c4.1-6.6,7.1-13.9,9.2-21.4C647,445.6,641.2,444,640.2,447.7L640.2,447.7z"/>
		</g>
	</g>
	<g display="inline">
		<g>
			<path d="M637.3,463.1c1.2,0.8,2.3,1.6,3.6,2.3c1.1,0.6,2.5,1.1,3.5,1.8c-0.4-0.4-0.7-0.7-1.1-1.1c-0.4-1-0.2-1.8,0.6-2.5
				c0.5-0.1,1-0.3,1.5-0.4c0.3,0.1,0.6,0.1,0.8,0.2c0.4,0.4,0.7,0.7,1.1,1.1c0.2,0.7,0.1,1.4-0.4,2.1c-0.4,0.3-0.9,0.5-1.3,0.8
				c0.1,0,0.2-0.1,0.2-0.1c1.5-0.6,2.6-2,2.1-3.7c-0.4-1.4-2.2-2.7-3.7-2.1c-2.3,1-3.6,3.5-2.3,5.8c1.4,2.5,5,2.4,6.5,0
				c1.4-2.3,0.3-4.7-2-5.8c-2.2-1-4.2-2.2-6.2-3.6c-1.3-0.9-3.3-0.2-4.1,1.1C635.3,460.5,636,462.2,637.3,463.1L637.3,463.1z"/>
		</g>
	</g>
	<g display="inline">
		<g>
			<path d="M641.5,449.8c4.4,2.6,9,5.1,13.6,7.3c3.5,1.7,6.5-3.5,3-5.2c-4.6-2.3-9.2-4.7-13.6-7.3
				C641.2,442.6,638.2,447.8,641.5,449.8L641.5,449.8z"/>
		</g>
	</g>
	<g display="inline">
		<g>
			<path d="M667.7,456.9c-1.9,5.2-4,10.3-6.3,15.2c-1,2.2-2.1,4.4-3.2,6.5c-0.7,1.4-2.1,5.6-3.3,6.4c1.5,0.6,2.9,1.2,4.4,1.8
				c0-0.1,0-0.1,0-0.2c-0.7,1.2-1.4,2.5-2.1,3.7c0,0,0.1,0,0.1,0c3.8-0.7,2.2-6.4-1.6-5.8c0,0-0.1,0-0.1,0c-1.7,0.3-2.4,2.2-2.1,3.7
				c0,0.1,0,0.1,0,0.2c0.3,1.8,2.9,2.8,4.4,1.8c3.9-2.7,6.3-10,8.3-14.2c2.7-5.7,5.1-11.6,7.3-17.5
				C674.8,454.8,669,453.3,667.7,456.9L667.7,456.9z"/>
		</g>
	</g>
	<g display="inline">
		<g>
			<path d="M660.8,456.9c2.8,0.9,5.5,1.9,8.2,3.2c1.1,0.5,2.2,1.1,3.2,1.6c0.6,0.3,3.4,2.5,3.1,1.1c0.7-1.2,1.4-2.5,2.1-3.7
				c-0.1,0-0.2,0-0.2,0c1.2,0.7,2.5,1.4,3.7,2.1c0-0.1,0-0.1,0-0.2c-0.6-3.8-6.4-2.2-5.8,1.6c0,0.1,0,0.1,0,0.2
				c0.3,1.7,2.2,2.3,3.7,2.1c0.1,0,0.2,0,0.2,0c1.6-0.3,2.4-2.2,2.1-3.7c-0.7-2.9-5.2-4.4-7.5-5.5c-3.6-1.8-7.4-3.3-11.3-4.6
				C658.7,449.9,657.1,455.7,660.8,456.9L660.8,456.9z"/>
		</g>
	</g>
	<g display="inline">
		<g>
			<path d="M685.6,463.2c-3.9,9.9-8.4,19.6-13.5,29c-1,1.9,0,3.7,1.8,4.4c2.8,1.2,5.7,2.3,8.5,3.4c2.3,0.9,5,2.6,7.5,2.5
				c2-0.1,3.4-1.9,2.9-3.8c0-0.1,0-0.2-0.1-0.3c-0.4-1.7-2.1-2.3-3.7-2.1c-0.1,0-0.1,0-0.2,0c-3.8,0.6-2.2,6.4,1.6,5.8
				c0.1,0,0.1,0,0.2,0c-1.2-0.7-2.5-1.4-3.7-2.1c0,0.1,0,0.2,0.1,0.3c1-1.3,1.9-2.5,2.9-3.8c-2.1,0.1-5.8-2.3-7.7-3
				c-2.3-0.9-4.5-1.8-6.8-2.7c0.6,1.5,1.2,2.9,1.8,4.4c5.4-9.8,10-20,14.1-30.4C692.8,461.2,687,459.6,685.6,463.2L685.6,463.2z"/>
		</g>
	</g>
	<g display="inline">
		<g>
			<path d="M681.7,480c2.1,1,4.2,2,6.4,3c1.5,0.7,3.2,0.4,4.1-1.1c0.8-1.3,0.4-3.4-1.1-4.1c-2.1-1-4.2-2-6.4-3
				c-1.5-0.7-3.2-0.4-4.1,1.1C679.8,477.2,680.2,479.3,681.7,480L681.7,480z"/>
		</g>
	</g>
	<g display="inline">
		<g>
			<path d="M688,466.2c2.6-0.1,5.9,3.4,8.1,4.6c2.8,1.5,5.7,2.8,8.7,3.8c0-1.9,0-3.9,0-5.8c-0.4,0.1-0.7,0.1-1.1,0.2
				c-3.8,0.5-2.2,6.3,1.6,5.8c0.4-0.1,0.7-0.1,1.1-0.2c3.2-0.5,2.5-4.9,0-5.8c-3.7-1.3-7.2-3-10.5-5.1c-2.6-1.6-4.7-3.6-7.9-3.5
				C684.2,460.3,684.1,466.3,688,466.2L688,466.2z"/>
		</g>
	</g>
</g>
<g id="Layer_2">
	<g id="XMLID_1_">
		<g>
			<g>
				<path fill="#262626" d="M1131.1,401.7c-7.2-2-14.4-3.8-21.6-5.5c-4.7-1.1-9.4-2.1-14.1-3.1c-6.4-1.3-9.1,8.5-2.7,9.8
					c3.6,0.8,7.2,1.5,10.8,2.4c-2.4,16.3-4.3,33.2-5.8,48.6c-0.3,0.7-0.5,1.5-0.5,2.4c0,0.6,0.1,1.2,0.1,1.8c0,0.1,0,0.2,0,0.2
					c0.3,6.6,9.6,6.5,10.2,0c0-0.1,0-0.2,0-0.3c1.5-16.9,3.4-33.7,5.9-50.5c5,1.2,10,2.5,15,3.9
					C1134.7,413.2,1137.4,403.4,1131.1,401.7z"/>
				<path fill="#262626" d="M1128.3,602.8c-1.1-0.8-2.4-0.8-3.6-0.5h0c-0.4-0.3-0.8-0.7-1.1-1c-0.8,0-1.6,0-2.4-0.1
					c-2.5-0.1-5-0.4-7.5-0.9c0,0,0,0-0.1,0c-1.1-0.2-2.2-0.5-3.2-0.8c-0.1,0.2-0.1,0.3-0.2,0.5c-67.1-5.3-134.6-5.6-201.8-0.9
					c-5,0.3-6.2,6.5-3.4,9.1c-0.5,0.7-0.8,1.6-0.9,2.6c-2.7,40.1-3.7,80.2-3.1,120.4c0,2.2,1.3,3.7,2.9,4.4c0.6,1.7,2.1,3,4.6,2.9
					c70-2.6,140.1-3.8,210.2-3.6c6.2,0,6.5-9.2,0.8-10.1c1.6-18.9,3.2-37.7,4.8-56.6c0.8-9.5,1.6-19,2.4-28.4
					c0.4-4.5,0.8-8.9,1.1-13.4c0.2-1.8-0.1-9.3,0.5-13.2c1.8-0.8,2.9-2.8,2.9-4.7C1131.5,605.8,1130.5,604.3,1128.3,602.8z"/>
				<path fill="#262626" d="M1063.4,463.9c29.2-1.1,22.8-48.3,23.1-66.5c0.1-6.5-10.1-6.5-10.2,0c-0.2,10.3-0.3,20.6-0.5,30.8
					c-0.2,8.3-0.9,23.2-11.5,25.4c-12.7,2.6-8.5-20.8-8.2-27.8c0.4-10.9,0.8-21.9,1.2-32.8c0.2-6.5-9.9-6.5-10.2,0
					c-0.6,17.2-2.4,34.8-1.9,52.1C1045.6,455.8,1051.8,464.4,1063.4,463.9z"/>
				<path fill="#262626" d="M1005.2,395.4c0.1,5.4,0.2,10.9,0.4,16.3c-0.8,1.8-0.7,3.4,0.1,4.6c0.3,13.1,0.6,26.2,0.9,39.3
					c0.1,6.5,10.3,6.5,10.2,0c-0.3-11.4-0.5-22.7-0.8-34.1c2.2,0.4,4.3,0.7,5.8,0.7c8.6,0.4,18.1-3.8,20.2-12.9
					c1.8-8-4.5-16-11.1-19.7c-7.3-4.1-16.2-4.3-23.4,0.1C1005.1,391.1,1004.6,393.4,1005.2,395.4
					C1005.2,395.3,1005.2,395.4,1005.2,395.4z M1030.4,402.6c2.6,3.8,1.4,7.3-3,8.9c-2.1,0.8-4.4,0.7-6.6,0.6
					c-1.4-0.1-2.7-0.3-4.1-0.6c-0.2-0.1-0.4-0.2-0.6-0.2c-0.1-0.3-0.2-0.6-0.4-0.9c-0.1-4.3-0.2-8.7-0.3-13.1
					C1020.8,395.5,1027.1,397.7,1030.4,402.6z"/>
				<path fill="#262626" d="M957.6,269.2c2.5-0.3,5-0.6,7.4-1c3.3-0.5,4.6-4.9,3-7.5c-2.7-4.5-5.7-8.7-9-12.8
					c-2.2-2.7-4.7-6.5-8.3-7.4c-7.4-1.8-15.3,7.1-19.6,12.6c-0.3,0.4-0.5,0.7-0.8,1c-1.4,1.8-1.2,3.6-0.2,5
					c-0.6,1.1-1.2,2.2-1.7,3.3c-1.6,3.5,0.3,7.5,4.4,7.7c1.5,0.1,2.9,0.1,4.4,0.1c3.4,0,6.8,0,10.2-0.2c4,44.4,11.9,88.1,21,131.9
					c10.8,51.8,22.1,103.6,25.8,156.5c0.4,6.5,10.6,6.5,10.2,0c-3.6-51.7-14.2-102.4-24.8-152.9
					C970.1,360.3,961.7,315.2,957.6,269.2z"/>
				<path fill="#262626" d="M842.8,67.7c25.7,6.3,52.8,7.4,79.1,4.6c16.8-1.8,34-5.5,49.8-11.9l0,0c0.5-0.2,1.1-0.4,1.6-0.7
					c0.8-0.4,1.7-0.7,2.5-1.1h0c1.9-0.9,3.8-1.8,5.7-2.8c0.2-0.1,0.4-0.2,0.5-0.3c0,0,0,0,0,0c1.3-0.7,2.5-1.3,3.8-2h0
					c0,0,0,0,0.1,0c0,0,0,0,0,0c-0.6-0.8-1.4-1.4-2.2-1.7c0,0,0,0,0,0c-24.3-17-56.3-22.5-85.5-21.2C868,31.9,838.8,41.4,812.8,57
					c3.8,1.9,7.7,3.6,11.7,5.1C830.4,64.3,836.6,66.2,842.8,67.7z"/>
				<path fill="#262626" d="M917.9,559.9c2.4,1.3,5.5,0.6,7-1.8c0.6-1,1.2-1.9,1.7-2.8c2.5-4,5.1-8,7.9-11.8
					c0.9-1.2,1.8-2.5,2.7-3.7c2.3-3.1-0.8-7.9-4.4-7.7c-1.5,0.1-3.1,0.2-4.6,0.4c-3,0.3-5.9,0.8-8.7,1.5
					c-27.8-91.7-20.7-189.4-30.1-283.9c-0.6-6.4-10.8-6.5-10.2,0c9.4,95.5,2.3,194.1,30.5,286.7c-1.5,0.6-3.1,1.2-4.7,1.8
					c-1.4,0.6-2.1,1.6-2.4,2.8c-0.8-0.3-1.5-0.6-2.3-0.9c-6.1-2.4-8.7,7.4-2.7,9.8c3.6,1.4,7.1,3,10.6,4.7
					C911.6,556.6,914.8,558.2,917.9,559.9z"/>
				<path fill="#262626" d="M862.2,711.6c-56.1-38.1-122.7-54.3-187.3-71.8c-72.5-19.6-141.2-48.2-211.3-74.9
					c-34.7-13.2-69.6-25.8-104.8-37.6c1.3-2,2.6-4,4-6c2-3-0.6-8.1-4.4-7.6c-1.6,0.2-3.1,0.4-4.7,0.7c-5.1,0.9-10,2.2-14.8,4
					c-0.6-0.1-1.3-0.1-2.1,0.1c-2.8,0.7-5.4,1.7-8,3c-2,1-2.9,3.7-2.3,5.7c1.8,6.1,4,12,6.6,17.8c0.7,1.5,1.4,3,2.1,4.5
					c1.8,3.6,6.8,3,8.8,0c3-4.5,6-9,8.9-13.5c67,22.7,132.7,48.8,198.7,74.2c34.1,13.1,68.6,25,103.8,34.8c32.4,9,65.1,17,97.2,27.2
					c36.7,11.7,72.4,26.4,104.5,48.1C862.5,724,867.6,715.2,862.2,711.6z"/>
				<path fill="#262626" d="M861.2,639.8c-0.7-1.5-1.4-2.9-2.2-4.4c-3.1-5.7-11.8-0.7-8.8,5c-0.9,1.5-1.8,2.9-2.7,4.4
					c-61-21-122.3-41.6-183-63.7c-63.1-23-123.7-50.8-184.6-79c-33.1-15.3-66.5-29.9-101-41.7c-6.2-2.1-8.9,7.7-2.7,9.8
					c62.4,21.3,120.7,52.1,180.8,78.8c61,27.1,124,49.1,187,70.9c33,11.4,66,22.8,98.9,34.2c-1.1,2.8-2.1,5.7-3,8.6
					c-0.3,1.2-0.7,2.4-1,3.6c-0.8,3.4,2.5,7.8,6.2,6.2c1.5-0.6,2.9-1.2,4.3-1.8c2.2-1,4.4-2,6.5-3c2.8-1.3,5.5-2.8,8.1-4.3
					c2.1-1.2,2.7-3.5,2.3-5.7C865.7,651.4,863.8,645.5,861.2,639.8z"/>
				<path fill="#262626" d="M840,385.5c-2.1,1.8-1.8,5.3,0,7.2c0.2,0.1,0.3,0.3,0.5,0.5c2,2.1,5.2,1.8,7.2,0c1-0.9,1.6-2,1.9-3.1
					c0.5-1.6,0.4-3.4,0.5-5.2c0.3-6.1,0.4-12.3,0.5-18.4c0-3.3,0-6.7,0-10c-0.1-9.5-0.4-19-1-28.4c-0.4-6.5-10.5-6.5-10.2,0
					c0.4,7.6,0.8,15.3,0.9,22.9c-6.9,0-12.8,0-20,0c0-8.4,0-16.7,0-25c0-7-10.2-7-10.2,0c0,0,0,14.3,0,30.5c0,10.9,0,22.6,0,31.5
					c0,6,10.2,6,10.2,0c0-9,0-17.6,0-26c5.1,0,14,0,20.2,0c0,3,0,5.9-0.1,9c0,1.5,0.8,14,0.2,14c0,0,0.1,0,0.1,0
					c-0.1,0.1-0.2,0.1-0.3,0.2C840.2,385.3,840.1,385.4,840,385.5z M847.7,385c-0.1,0-0.2,0.2-0.4,0.3c-0.1-0.1-0.2-0.2-0.4-0.3
					C847.2,385,847.4,385,847.7,385z"/>
				<path fill="#262626" d="M771,357.8c0,11.4-2.4,30.2,11.8,34.2c10.5,2.9,27.3-3.1,22.4-16.6c-2.2-6.1-12-3.5-9.8,2.7
					c-1.5,3.4-3.7,4.9-6.6,4.5c-2.6,0.2-4.7-1-6.5-3.4c-1.1-1.8-0.8-5-0.8-7c-0.3-5.9-0.4-11.8-0.3-17.6c0-5.1-1.3-10.6,0.5-15.5
					c2-5.5,9.3-14.3,12.3-5c0-0.2,0-0.4,0-0.6c1.2,3.8,7.7,5.9,10.3,1.5c5.5-9.3-10.3-17.9-18-14.6
					C771.7,326.6,770.9,344.4,771,357.8z M794,329c0,0.3,0.7,0.6,0.5,0.9c-0.2,0.4-0.4,0.7-0.5,1.1C794,330.3,794,329.6,794,329z"/>
				<path fill="#262626" d="M814.3,186.8c-2.2,2.3-2.2,7,1.5,8.7c1,2.8,3.9,3.3,6.2,2.3c32.4,11.4,66.6,17.2,101,16.4
					c16.4-0.4,33.5-1.6,49.4-5.6c12.7-3.2,23.7-9.9,29.3-22.1c0.8-1.6,0.8-3.5,0-5c1.9-2.3,1.6-5.2,0.2-7.8
					c-0.5-0.8-1.1-1.4-1.8-1.8c-0.1-0.3-0.1-0.5-0.1-0.7c-0.2-2.8-0.4-5.5-0.6-8.3c-0.4-5-0.8-10-1.1-14.9
					c-0.8-10-1.5-19.9-2.3-29.8c-1.4-18.8-2.8-37.6-4.3-56.5c-3.2,1.8-6.4,3.5-9.8,5.1c-1.5,0.7-2.9,1.3-4.4,1.9
					c-6.3,2.7-12.8,4.9-19.3,6.8c-5.8,1.7-11.8,3.1-17.8,4.2c-21.6,4.2-44,5.1-65.8,3.3c-0.6,0-1.3-0.1-1.9-0.2
					c-18.8-1.7-37.8-5.4-55.3-12.5c-3-1.2-5.9-2.5-8.8-3.9l0,0c-0.1,0-0.1,0-0.2-0.1c-0.2-0.1-0.5-0.2-0.7-0.4
					c-0.6,1.2-0.8,2.7-0.5,4v0C805.8,109,808.1,148.1,814.3,186.8z"/>
				<path fill="#262626" d="M755.6,321.5c-1.6-0.8-3.7-0.8-5.2,0c-6,0-11.9-0.2-17.3-0.5c-0.6-0.2-1.3-0.3-2.1-0.3
					c-0.7,0-1.4,0.1-2,0.1c0,0,0,0,0,0c-6.5,0.3-6.5,9.8,0,10.2c0,0,0,0,0,0c6.4,0.4,12.8,0.6,19.2,0.7c0.5,16.8,1.5,34-0.8,50.6
					c-0.3,0.6-0.5,1.4-0.5,2.2c0,0.6,0,1.1,0,1.7c-0.1,5.6,9,7.1,10,1.3c0.1-0.5,0.1-0.9,0.2-1.3c2.7-18,1.8-36.3,1.3-54.5
					c2.6,0,5.2-0.1,7.9-0.1c6.5-0.2,6.6-10.3,0-10.2C762.8,321.4,759.2,321.5,755.6,321.5z"/>
				<path fill="#262626" d="M370,405.5c97.3-66.8,198.6-127.6,303.3-181.9c23.7-12.3,47.5-24.2,71.6-35.9c2.5,4.1,5.2,8,8.2,11.8
					c2.7,3.5,7.7,3.1,9.3-1.2c1.7-4.5,3.1-9.1,4.2-13.8c0.9-3.6,2.6-8.4,0.9-12.1c-0.1-0.2-0.1-0.3-0.2-0.5
					c-1.8-3.4-5.3-4.2-8.8-5.1c-5.1-1.5-10.2-2.9-15.3-4.4c-1.2-0.3-2.3-0.3-3.2,0.1c-3.2,0.2-6.1,3.7-4.4,7.6
					c1.3,3,2.7,5.9,4.2,8.7c-99.9,48.4-197,102.5-290.6,162.1c-28.4,18.1-56.5,36.7-84.3,55.8C359.5,400.4,364.6,409.2,370,405.5z"
					/>
				<path fill="#262626" d="M713.6,571.3c9.4-17.6,18.4-35.4,26.9-53.5c3,1.6,6,3.2,9,4.8c0.5,1.3,1.6,2.3,3.4,2.6
					c0.7,0.1,1.5,0.3,2.2,0.4c5.4,0.9,9.2-6.2,3.9-9.3c-0.4-0.2-0.8-0.4-1.1-0.6c-6-3.4-12-6.6-18.2-9.6c-4.6-2.3-9.2-4.5-13.9-6.5
					c-2.8-1.2-5.4,0-6.8,2c-0.8-3-3-5.6-7.2-7.6c-8.9-4.3-20.4-2.9-26.8,4.9c-6.5,7.8-5.5,17.9,1,25.2c5.6,6.2,11.4,11.8,6.2,20.5
					c-1.8,3-5,6-8.2,7.1c-11.8,4.2-10.1-6-4.5-10.5c5.1-4.1-2.2-11.3-7.2-7.2c-8.2,6.6-11,19.3-1.7,26.4c8.7,6.6,21.4,0.2,27.6-7
					c7.1-8.2,8.5-20.4,1.9-29.3c-4.4-5.9-15.7-13.8-5.2-20.8c3.1-2,11.4-2.9,14,0.5c2.1,2.7-2.9,8-4.5,10.1
					c-3.9,5.3,4.9,10.3,8.8,5.1c2.8-3.8,5.1-8,5.9-11.9c0.4,0.4,0.9,0.8,1.6,1.1c3.6,1.6,7.2,3.3,10.8,5
					c-8.4,17.8-17.3,35.5-26.6,52.9C701.8,572,710.5,577.1,713.6,571.3z"/>
				<path fill="#262626" d="M715.3,695.1c-1-0.3-1.9-0.7-2.9-1.1c-5.2-2.1-10.2-4.6-14.9-7.6c-4.3-2.8-8-6-13.4-5.9
					c-4,0.1-5.5,3.8-4.7,6.8c-2.7,6.8-5.5,13.4-8.5,20c-4.2,9.3-8.8,18.4-13.7,27.4c-1.7,3.1,0,6.2,3,7.5c4.8,2,9.6,3.9,14.5,5.8
					c4,1.6,8.5,4.4,12.8,4.3c0.5,0,0.9-0.1,1.4-0.2c2.6-0.8,4.2-3.4,3.5-6.2c0-0.1-0.1-0.3-0.1-0.4c-0.7-2.9-3.6-4-6.2-3.5
					c-0.1,0-0.2,0-0.3,0c-3.6-0.8-8.6-3.8-11.3-4.9c-1.9-0.8-3.8-1.5-5.7-2.2c3.2-6,6.2-12.2,9.1-18.3c2.1,1,4.2,2,6.3,3
					c2.5,1.2,5.5,0.7,7-1.8c1.3-2.2,0.7-5.8-1.8-7c-2.4-1.1-4.8-2.3-7.2-3.4c2.2-5,4.3-10,6.4-15.1c3.2,1.8,6.6,5,9.2,6.4
					c3.7,2,7.3,3.7,11.1,5.2c1.1,1.1,2.7,1.8,4.7,1.5c0.6-0.1,1.3-0.2,1.9-0.3C720.7,704.1,719.5,696.6,715.3,695.1z"/>
				<path fill="#262626" d="M687.1,390c3.8-8.2,7.3-16.5,10.3-25.1c1.1-3.1,2-6.2,2.9-9.3c6.2,0,12.4-0.7,18.5-1.9
					c2.6,9.9,4.5,19.9,5.6,30.1c0.7,6.4,10.9,6.5,10.2,0c-1.5-12.6-3.8-25.1-7.3-37.3c-0.4-1.4-0.8-2.7-1.2-4
					c-2.4-7.8-5.4-23.6-16.9-21.3c-10.1,2-13.5,13.8-15.9,22.3c-0.2,0.8-0.5,1.6-0.7,2.4c-2.1,1.2-2.7,4-1.9,6.3
					c-3.4,11.2-7.5,22-12.5,32.7C675.6,390.8,684.3,396,687.1,390z M705.2,339c0.6-1.6,1.9-5.3,3.5-6.2c4.1-2.4,4.3,2.2,5.2,4.8
					c0.7,2.1,1.4,4.2,2.1,6.3c-4.3,0.8-8.5,1.3-12.9,1.5C703.8,343.2,704.5,341.1,705.2,339z"/>
				<path fill="#262626" d="M651,384.6c0,0.9,0,1.7-0.1,2.6c-0.2,5,7.1,7,9.5,2.6c0.3-0.7,0.7-1.3,1.1-2c1-1.9,0.8-3.8-0.2-5.2
					c0.3-9.1,0.6-18.1,0.9-27.2c12.3,0.5,27-3.8,25.9-18.9c-1.1-16.6-20.4-18.6-33.1-16.3c-4.4,0.8-4.5,5.5-2.2,8.1
					c-0.2,7.5-0.5,15-0.7,22.5C651.7,362.1,651.4,373.4,651,384.6z M677.8,336.4c1.4,8.4-8.9,9.5-15.4,9c0.2-5.4,0.3-10.7,0.5-16.1
					C669.1,329,676.7,330,677.8,336.4z"/>
				<path fill="#262626" d="M653.4,542.6c6.9-4.2,10.4-12.6,14.2-19.3c4.7-8.4,11.1-17.1,13.4-26.5c3.6-15-8.9-26-23.4-21.9
					c-2.4,0.7-3.5,2.5-3.6,4.4c-5.6,4-9.5,10.1-13.4,15.8c-5.4,8.1-10.6,16.9-11.8,26.7C627.1,536.2,638,552.1,653.4,542.6z
					 M639.1,521.6c0.8-4.8,3.1-9.4,5.5-13.6c4.6-8.1,10.4-18.9,19.3-22.7c0.7-0.3,1.2-0.7,1.6-1.1c3.5,0.6,5.9,3.4,5.9,8.1
					c0,5-3.6,9.9-6,14.1c-4.3,7.8-8.1,17.5-14,24.2c-3.2,3.7-4.5,5-8.8,2C638.4,529.5,638.2,526.9,639.1,521.6z"/>
				<path fill="#262626" d="M662.3,685.8c0.8,2.4,3.8,3.2,6.1,2.9c0.1,0,0.3,0,0.4-0.1c2.8-0.5,4.1-3.8,3.5-6.2
					c-0.2-1-0.7-1.8-1.3-2.6c-2.6-3.2-8.2-5.2-11.3-6.8c-0.9-0.4-1.8-0.9-2.7-1.3c-5.3-2.5-10.8-4.7-16.4-6.5
					c-6.2-2-8.9,7.8-2.7,9.8c3.5,1.1,6.9,2.4,10.2,3.8c-2.8,7.4-5.8,14.7-9.2,21.9c-1.8,3.7-3.6,7.4-5.5,11c-1.1,2-3,7.8-4.8,10
					c-2.6,0.7-3.6,3.8-3.1,6.2c0,0.1,0,0.2,0.1,0.3c0.6,3.1,4.9,4.8,7.5,3c0.2-0.1,0.3-0.2,0.5-0.4c0.5-0.3,1-0.7,1.3-1.1
					c0,0,0,0,0,0c5.6-5.4,9.1-16.1,12.2-22.6c3.8-7.9,7.2-15.9,10.3-24.1C658.2,683.7,661.4,686.1,662.3,685.8z"/>
				<path fill="#262626" d="M607.1,471.8c-2.6,5-5.2,10-7.8,15c-5.3,10.2-10.6,20.4-15.8,30.6c-3,5.8,5.8,10.9,8.8,5.1
					c4-7.7,8-15.4,12-23.1c2.6,2.4,6.1,3.8,10,3.9c7.2,0.2,19.5-4.2,22.9-10.9c3.5-7-0.5-17.7-4.5-23.6c-5-7.4-13.4-11.2-22.2-8.8
					c-4.9,1.3-4.4,7.6-0.9,9.5C608.6,469.8,607.7,470.6,607.1,471.8z M615.8,476.9c1.6-3.1-0.1-6-2.6-7.2
					c8.4-2.2,14.2,7.7,14.8,15.1c0.3,3.9-2.1,4.6-5.4,6.1c-3,1.4-12.6,5.1-13.2-1.5c0,0,0-0.1,0-0.1
					C611.6,485.2,613.7,481.1,615.8,476.9z"/>
				<path fill="#262626" d="M627.7,665.5c-7.9-3.8-15.5-8-23.1-12.4c-4.2-2.5-8.2,1.8-7.5,5.5c-1.9,6.7-4.1,13.2-7,19.5
					c-0.8,1.7-1.6,3.4-2.4,5.1c-3.2,6.3-10,13.3-11.7,20.1c-1.2,4.7,1.7,8.9,6,10.7c3,1.2,6.5,1,9.6,1.8c4.6,1.2,8.5,3.4,12.3,6.2
					c5.2,3.9,10.3-4.9,5.1-8.8c-4.5-3.3-9.3-5.8-14.7-7.2c-1-0.3-6.5-0.4-7-1.2c-0.7-1.1,3-5.5,4.1-7.5c2-3.2,3.8-6.5,5.4-9.8
					c0.5,0.3,0.9,0.5,1.4,0.8c0.4,0.2,0.8,0.4,1.1,0.6c0.1,0.9,0.4,1.8,0.9,2.7c2.4,4.2,8.5,4.1,10.9,0c2.3-3.9,0.5-8-3.4-9.8
					c-0.1,0-0.2-0.1-0.3-0.1c-2.2-1.1-4.4-2.2-6.5-3.5c1.7-4.2,3.2-8.4,4.6-12.8c5.5,3.1,11.1,6,16.8,8.8
					C628.4,677.1,633.6,668.4,627.7,665.5z"/>
				<path fill="#262626" d="M571.1,698.1c-8.2-3.7-16.6-6.9-25.2-9.5c6.7-13.2,13.4-26.4,20.2-39.6c3-5.8-5.8-11-8.8-5.1
					c-7.7,15.1-15.4,30.2-23.1,45.4c-1.5,2.9-0.3,6.6,3,7.5c9.9,2.6,19.5,5.9,28.8,10.1C571.9,709.5,577.1,700.8,571.1,698.1z"/>
				<path fill="#262626" d="M528.9,654.6c-3.3-1.6-6.7-3.1-10.2-4.5c2.2-3.2,5.1-6.7,6.8-10.4c6.9,3.4,14.1,6.2,21.6,8.2
					c6.3,1.8,9-8,2.7-9.8c-8.7-2.4-17-5.8-24.9-10.2c-1.9-1.1-3.8-0.8-5.2,0.2c-2,0.9-3.4,3-2.8,5.8c0.2,0.8-4.4,6.6-5.1,7.7
					c-1.7,2.8-3.4,5.6-5.1,8.4c-0.5,0.8-0.9,1.5-1.3,2.3c-4.1,7.2-7.7,14.7-11.1,22.3c-1.3,2.8-0.4,6.7,3,7.5c8.5,2,16.4,4.9,24.1,9
					c2.5,1.4,5.4,0.5,7-1.8c1.2-1.8,1.4-3.5,0.7-5.6c-1-2.9-3.9-3.9-6.3-3.3c-5.5-2.7-11.2-4.9-17-6.6c2.4-5,4.9-10,7.6-14.8
					c3.5,1.4,6.9,2.8,10.2,4.5c2.5,1.2,5.5,0.7,7-1.8C532,659.4,531.3,655.8,528.9,654.6z"/>
				<path fill="#262626" d="M521.9,214.3c2.8-2.8,5.9-5.2,9.1-7.6c12.8,10.7,24.4,22.7,34.4,36.1c3.9,5.2,12.7,0.1,8.8-5.1
					c-10.2-13.7-21.8-26.1-34.8-37.1c3.4-2.6,6.7-5.3,9.7-8.5c4.5-4.8-2.7-12-7.2-7.2c-4,4.3-8.7,7.8-13.4,11.3
					c-4.7,3.5-9.5,6.9-13.7,11C510,211.7,517.2,218.8,521.9,214.3z"/>
				<path fill="#262626" d="M486.9,235.5c5.4,6.3,10.6,12.8,15.5,19.6c2.3,3.2,4.5,6.4,6.7,9.6c1.3,2,4.2,5.1,5.4,7.8v0
					c0,0.1,0,0.2,0,0.3c-0.1,0.8,0.1,1.6,0.4,2.2c0.4,2.7,2.8,5.4,6.3,4.8c4.5-0.8,8.2-5.5,11.4-8.4c3.4-3.2,6.9-6.3,10.8-8.8
					c0.7-0.4,1.4-0.9,2.2-1.3c4.5-2.5,2.3-9.4-2.6-9.5c-0.3,0-0.6,0-0.8,0c-1.9,0-3.3,0.8-4.1,2.1c-3.3,2-6.4,4.5-9.3,7.1
					c-1.7,1.6-3.4,3.2-5.1,4.8c-0.3,0.3-0.6,0.6-0.9,0.9c-1.1-1.7-2.3-3.2-3.3-4.7c-1.9-2.8-3.8-5.6-5.7-8.4c1.8-1.5,3.7-3,5.5-4.4
					c2.1-1.7,1.9-5.5,0-7.2c-2.2-2-5-1.8-7.2,0c-1.4,1.1-2.9,2.3-4.3,3.4c-3.7-4.9-7.4-9.6-11.3-14.3c3.8-3,8-5.4,12.4-7.4
					c2.5-1.1,3.1-4.8,1.8-7c-1.5-2.6-4.4-3-7-1.8c-6,2.7-11.4,6.3-16.5,10.5c-1.7,1.5-2,3.2-1.4,4.8
					C485.4,232,485.5,233.9,486.9,235.5z"/>
				<path fill="#262626" d="M490.8,298.8c15.3-2,15.4-16,10.1-27.5c-0.7-1.4-2.8-2.7-4.4-2.5c-5.8,0.7-10.2,2.5-14.6,6.5
					c-4.8,4.4,2.4,11.6,7.2,7.2c1.2-1.3,2.6-2.3,4.2-2.9c5,15.9-19.5,6.9-25.8-1.4c-3.8-5-5.7-11-5.5-17.2c0.1-3.9,0.2-7,3.4-9.5
					c4.7-3.7,8.2,0.6,12,4.2c4.7,4.6,11.9-2.6,7.2-7.2c-7.9-7.7-22.2-14.9-29.4-2c-6.3,11.4-3.5,27.3,3.9,37.3
					C466.1,293.4,478.8,300.4,490.8,298.8z"/>
				<path fill="#262626" d="M494.9,625.1c-3.3-7.7-8.4-15.9-16.9-15.8c-2.2-1.1-5-0.9-6.4,1.9c0,0,0,0,0,0c-0.9,0.8-1.4,1.8-1.5,2.9
					c-6,11.3-12.5,22.4-19.4,33.3c-2.6,0.5-5,2.7-4.5,6c-0.9,1.4-1.2,3.2-0.4,5.1c9.1,21,41.8,14.7,51.8-2.3
					C503.3,646.2,499,634.9,494.9,625.1z M486.6,653.7c-7.1,7.7-22.8,11.6-30,3.1c7.8-12,15.1-24.4,21.9-37
					c5.2,1.1,8.2,11.8,9.5,15.3C490.2,641.6,491.8,648.2,486.6,653.7z"/>
				<path fill="#262626" d="M329,474.5c-17.5-47.9-33-96.5-46.2-145.8c3.6-2.8,0.8-9.9-4.8-8.8c-59,11-117.3,24.7-175,41.3
					c-0.5,0.2-1,0.4-1.4,0.6c-4.2-1.2-8.7,4.6-5,8.6c3.4,3.7,4.8,11.5,6.4,16.1c2,5.6,4,11.2,6,16.8c3.8,10.7,7.4,21.4,10.8,32.2
					c7.2,22.1,13.7,44.3,19.8,66.6c0.5,1.8,1.7,2.9,3.1,3.3c-0.7,3.3,1.9,7.4,6.2,6.2c56-15.4,113.3-25.4,171.2-29.7
					c1.3-0.1,2.4-0.6,3.1-1.3C326.7,481.1,330.5,478.5,329,474.5z"/>
			</g>
		</g>
	</g>
</g>
</svg>
